<svg version="1.1" id="Layer_1" xmlns="http://www.w3.org/2000/svg" xmlns:xlink="http://www.w3.org/1999/xlink" x="0px" y="0px"
	 width="100%" viewBox="0 0 563 65" enable-background="new 0 0 563 65" xml:space="preserve">
<path fill="#363637" opacity="1.000000" stroke="none" 
	d="
M532.000000,66.000000 
	C356.166748,66.000000 180.833466,65.986053 5.500277,66.093727 
	C1.751462,66.096031 0.853931,65.256783 0.898254,61.499023 
	C1.120364,42.668320 1.112043,23.832298 0.897763,5.001410 
	C0.858723,1.570587 1.575523,0.902400 4.999824,0.905069 
	C147.166336,1.015877 289.332977,1.000000 431.499573,1.000000 
	C474.499542,1.000000 517.499634,1.038507 560.499268,0.916499 
	C563.481201,0.908038 564.112854,1.512058 564.086975,4.500269 
	C563.917847,23.998793 563.946533,43.499825 564.066040,62.999084 
	C564.081421,65.499626 563.507507,66.113632 560.999268,66.068604 
	C551.502136,65.898079 542.000183,66.000000 532.000000,66.000000 
z"/>
<path fill="#4B94E6" opacity="1.000000" stroke="none" 
	d="
M223.590393,36.700817 
	C222.886078,35.607109 222.686920,34.278034 221.556549,34.336105 
	C220.451569,34.392872 220.836807,35.609707 220.781082,36.346123 
	C220.693436,37.504761 220.637253,38.686954 220.766602,39.836807 
	C221.129333,43.061134 219.887772,44.230946 216.553864,44.110832 
	C213.572769,44.003429 211.413666,43.990005 211.666336,40.017246 
	C211.950943,35.541828 211.846222,31.031361 211.703156,26.542757 
	C211.612732,23.705479 212.788803,23.075644 215.497879,22.875731 
	C220.112015,22.535236 223.358078,23.544289 225.472260,28.123400 
	C226.881485,31.175644 228.522720,34.336479 231.449341,37.039566 
	C233.983948,32.942947 236.287521,29.127644 238.688751,25.374815 
	C240.026382,23.284300 248.285110,21.917646 250.022125,23.404663 
	C251.051041,24.285492 251.237854,42.885742 250.046982,43.488556 
	C247.897720,44.576481 245.449127,44.181080 243.200043,43.843941 
	C241.174606,43.540329 241.980026,41.487568 241.741867,40.143734 
	C241.412125,38.283138 242.359421,36.211544 240.823166,34.395000 
	C236.538300,36.948170 237.564148,45.238312 229.957825,44.067520 
	C225.662979,43.406448 225.858124,39.317406 223.590393,36.700817 
z"/>
<path fill="#4B94E7" opacity="1.000000" stroke="none" 
	d="
M276.023010,34.847092 
	C278.030609,31.565062 279.926941,28.630188 281.655884,25.599812 
	C282.648163,23.860573 283.813965,23.020897 285.957153,22.926413 
	C293.875397,22.577343 293.871460,22.481291 293.873566,30.409039 
	C293.874298,33.236252 293.886810,36.063541 293.869965,38.890656 
	C293.841248,43.709209 291.338074,45.391762 286.646210,43.985310 
	C285.100647,43.521999 285.052368,42.528198 285.042023,41.360619 
	C285.018707,38.733685 285.034698,36.106400 284.143005,33.114471 
	C282.488190,35.863476 280.872803,38.637184 279.169159,41.355618 
	C276.683380,45.322102 271.763763,45.246662 269.315521,41.201851 
	C267.862823,38.801777 266.515289,36.338078 264.847260,33.426037 
	C263.424622,35.478714 263.730103,37.348392 263.938904,38.953110 
	C264.503448,43.291912 262.611572,44.447613 258.586487,44.095387 
	C256.237854,43.889858 254.881012,43.590591 254.980988,40.790905 
	C255.152985,35.974182 255.145462,31.142859 254.981445,26.325558 
	C254.890396,23.650812 255.997772,23.099775 258.475220,22.901264 
	C263.216003,22.521399 266.794159,23.446777 268.752380,28.364691 
	C269.782257,30.951256 271.606995,33.224953 273.102448,35.621422 
	C274.364075,37.643219 275.105927,36.355591 276.023010,34.847092 
z"/>
<path fill="#4C96E8" opacity="1.000000" stroke="none" 
	d="
M48.453037,31.247002 
	C47.515850,32.831013 46.861797,33.627682 48.408169,35.264431 
	C51.412022,38.443848 50.246647,41.573120 45.973461,43.064888 
	C41.296772,44.697510 36.437855,43.931400 31.659191,43.977097 
	C20.734943,44.081577 20.734261,44.010124 20.734375,33.137829 
	C20.734484,22.989899 20.734495,22.980663 30.891527,22.994791 
	C34.538479,22.999866 38.213402,22.791105 41.825104,23.166012 
	C46.251793,23.625513 49.452747,25.612732 48.453037,31.247002 
z"/>
<path fill="#4B95E8" opacity="1.000000" stroke="none" 
	d="
M439.697693,41.601326 
	C438.012451,45.704102 434.768646,43.944492 432.358215,43.775089 
	C429.869873,43.600212 430.844299,40.902771 430.787018,39.297852 
	C430.632996,34.979004 430.802460,30.649706 430.733368,26.326317 
	C430.693665,23.843597 431.627167,23.023397 434.222198,22.892717 
	C438.820740,22.661148 442.580444,23.278601 445.157196,27.742865 
	C446.697052,30.410618 449.069427,32.597816 451.404083,35.405720 
	C452.572754,33.126732 452.065674,31.146734 452.146851,29.279776 
	C452.283478,26.138527 451.044373,22.771736 456.721588,22.798496 
	C462.669128,22.826529 460.828156,26.593180 460.973206,29.484018 
	C461.148010,32.968239 460.876953,36.474960 461.055054,39.958847 
	C461.200439,42.803314 460.508240,44.017460 457.270020,44.132137 
	C452.788147,44.290852 449.278168,43.569038 446.786743,39.361122 
	C445.233978,36.738602 442.900848,34.578110 439.721649,32.488945 
	C439.721649,35.378773 439.721649,38.268597 439.697693,41.601326 
z"/>
<path fill="#4B94E8" opacity="1.000000" stroke="none" 
	d="
M63.994129,22.986332 
	C68.269318,23.171459 72.102158,22.512789 75.825760,23.859426 
	C80.815147,25.663836 82.750015,29.872608 80.197449,34.512951 
	C79.244598,36.245152 78.474297,37.353848 79.804298,39.269314 
	C80.625511,40.452030 81.881241,42.957451 80.093208,43.541790 
	C77.686913,44.328175 74.001381,45.528957 72.454941,42.594967 
	C70.947472,39.734917 69.301086,38.883965 66.321220,38.816338 
	C63.262711,38.746922 62.331024,39.683571 61.604969,42.798717 
	C61.010651,45.348606 57.570721,43.700283 55.414146,43.933899 
	C53.233311,44.170147 53.181564,42.470409 53.178158,40.914265 
	C53.168350,36.433388 53.354362,31.942059 53.103893,27.474995 
	C52.912540,24.062237 53.960266,22.534760 57.537151,22.947121 
	C59.502491,23.173693 61.515491,22.986799 63.994129,22.986332 
z"/>
<path fill="#4B94E8" opacity="1.000000" stroke="none" 
	d="
M170.822464,44.008690 
	C167.940125,44.031769 165.656509,44.404556 164.514236,41.036285 
	C163.400208,37.751244 160.005646,39.144947 157.493591,38.929798 
	C154.995270,38.715832 155.348557,40.585224 154.892731,42.189205 
	C153.965485,45.451954 151.076050,43.602112 149.059067,43.957336 
	C147.374680,44.253986 146.117844,43.605694 146.192490,41.556438 
	C146.222717,40.727314 146.104401,39.889320 146.174606,39.065670 
	C146.620667,33.832577 145.168625,28.502348 146.977097,23.340540 
	C154.411301,23.000402 161.912659,21.980856 169.211533,24.057150 
	C173.652405,25.320435 175.636383,29.412083 173.594910,33.546459 
	C172.311493,36.145657 171.953308,38.057457 173.346603,40.595795 
	C174.364014,42.449368 174.171722,44.240612 170.822464,44.008690 
z"/>
<path fill="#4B94E8" opacity="1.000000" stroke="none" 
	d="
M344.766235,41.285961 
	C340.296112,37.454807 337.553192,38.088081 334.815796,42.771770 
	C333.329559,45.314781 330.605835,43.676262 328.460571,43.935360 
	C326.311920,44.194859 326.174072,42.548000 326.175354,40.955395 
	C326.179291,35.969795 326.256042,30.982464 326.145630,25.999327 
	C326.089844,23.481150 327.329803,22.927183 329.524231,22.967228 
	C334.508240,23.058184 339.502686,22.831867 344.478607,23.054106 
	C353.209259,23.444036 355.920410,27.888824 352.299652,35.773354 
	C351.797577,36.866745 351.898315,37.465813 352.379486,38.425964 
	C353.211700,40.086727 355.006287,42.853352 353.009003,43.494694 
	C350.592560,44.270638 346.717682,46.012348 344.766235,41.285961 
z"/>
<path fill="#4B94E8" opacity="1.000000" stroke="none" 
	d="
M127.158562,22.991175 
	C132.000381,22.797661 136.290588,23.084175 139.811584,26.159029 
	C140.770126,26.996120 142.133224,27.946743 141.580353,29.417717 
	C141.075607,30.760576 139.557953,30.123930 138.484604,30.198545 
	C135.822647,30.383596 133.295624,29.852020 130.686188,29.148499 
	C125.612175,27.780521 121.839073,30.950668 123.180084,35.015980 
	C124.035172,37.608170 125.716415,38.209373 131.584808,37.891289 
	C129.420898,34.097713 130.629333,32.491848 134.800690,32.978481 
	C135.456863,33.055031 136.149582,32.885334 136.791000,33.008549 
	C138.616333,33.359188 141.335770,31.858419 142.109497,34.217030 
	C143.023575,37.003433 142.728180,40.131229 142.157227,43.093647 
	C142.000244,43.908264 141.066498,44.137390 140.574905,43.911812 
	C136.181000,41.895535 131.878464,44.317200 127.498032,44.106773 
	C119.044746,43.700676 114.287926,40.359089 114.091339,33.901413 
	C113.887985,27.221762 118.128441,23.556194 127.158562,22.991175 
z"/>
<path fill="#4B94E7" opacity="1.000000" stroke="none" 
	d="
M93.536674,43.927116 
	C85.996552,41.893574 83.089951,38.797562 83.182228,33.319817 
	C83.283485,27.309332 87.812553,23.346100 94.974571,23.000757 
	C105.551353,22.490755 111.154274,25.468781 111.919792,32.007332 
	C112.681900,38.516792 108.592079,43.258713 101.452873,43.917870 
	C98.977417,44.146423 96.463715,43.960632 93.536674,43.927116 
z"/>
<path fill="#4B93E7" opacity="1.000000" stroke="none" 
	d="
M485.746765,44.014885 
	C479.777924,44.014240 474.277313,43.918774 468.782288,44.052589 
	C466.199585,44.115490 465.203583,43.177982 465.267548,40.593746 
	C465.387054,35.764870 465.368500,30.929844 465.279938,26.099714 
	C465.235870,23.696726 466.279388,22.918344 468.588287,22.958416 
	C474.418091,23.059601 480.251434,23.043375 486.081940,22.966047 
	C488.169586,22.938358 489.084076,23.626368 489.042450,25.833937 
	C489.004028,27.868780 488.422699,28.982241 486.205444,28.898163 
	C484.209167,28.822466 482.173340,28.667255 480.217438,28.961966 
	C478.190186,29.267435 474.563293,27.551750 474.522797,30.581810 
	C474.487244,33.240082 478.076996,31.394800 479.944092,31.998737 
	C482.195526,32.727009 486.486664,30.129587 486.470490,33.878338 
	C486.453217,37.898872 482.062012,35.356987 479.678772,35.973148 
	C477.987732,36.410351 476.062988,35.502293 473.579620,37.291687 
	C478.152496,38.672970 482.172668,37.906216 486.072662,38.082756 
	C488.124146,38.175621 490.014984,37.918762 490.069702,41.031296 
	C490.124329,44.135490 488.326355,44.097260 485.746765,44.014885 
z"/>
<path fill="#4B94E7" opacity="1.000000" stroke="none" 
	d="
M316.830261,44.015160 
	C311.362915,44.012112 306.370697,43.932751 301.382416,44.039463 
	C299.036377,44.089653 298.098297,43.220112 298.144958,40.855381 
	C298.243408,35.866726 298.224243,30.874174 298.156158,25.884546 
	C298.126892,23.740299 299.049164,22.950558 301.142731,22.973776 
	C307.130707,23.040184 313.120575,23.047007 319.108276,22.968464 
	C321.277832,22.940006 321.991425,23.829407 321.969757,25.936789 
	C321.947968,28.061430 321.131256,28.938423 319.017426,28.902790 
	C315.691895,28.846733 312.363800,28.902931 309.037567,28.959488 
	C307.969360,28.977650 307.052917,29.308081 307.201141,30.686516 
	C307.319702,31.789099 308.179230,31.917713 309.002380,31.935066 
	C311.496704,31.987652 313.992859,31.952909 316.487366,32.000244 
	C317.950958,32.028011 319.698273,31.761675 319.608215,34.096676 
	C319.517639,36.443913 317.689972,35.905674 316.293549,36.003643 
	C313.313141,36.212746 310.235229,35.582054 307.340881,37.060535 
	C310.592041,38.577808 314.019562,37.781872 317.325348,38.139973 
	C319.589661,38.385258 323.161743,36.625839 322.932922,41.370457 
	C322.716583,45.855999 319.252411,43.288639 316.830261,44.015160 
z"/>
<path fill="#4B93E6" opacity="1.000000" stroke="none" 
	d="
M501.442780,43.982334 
	C497.318787,43.263477 492.591980,42.092319 493.275452,38.034740 
	C493.659241,35.756233 499.043182,36.793911 502.152100,37.606663 
	C503.775909,38.031166 505.198212,38.262768 507.331940,37.192204 
	C504.565948,35.362816 502.013123,36.389332 499.729156,35.940483 
	C496.490906,35.304085 492.543030,35.068523 492.353027,30.733107 
	C492.176727,26.710421 495.095367,24.309647 498.785278,23.568008 
	C503.843658,22.551319 509.013245,22.098919 513.781738,24.913063 
	C515.252136,25.780779 516.800842,27.119825 516.486572,28.782219 
	C516.119385,30.724150 514.008728,29.610498 512.677734,29.891111 
	C512.046021,30.024296 511.385071,30.018688 509.839264,30.155354 
	C513.765686,31.823692 518.040100,32.591846 516.839233,37.461674 
	C515.664429,42.225906 511.806213,43.714718 507.357422,43.984707 
	C505.536407,44.095219 503.703003,44.001465 501.442780,43.982334 
z"/>
<path fill="#4B93E6" opacity="1.000000" stroke="none" 
	d="
M523.190918,35.143673 
	C518.104370,32.012424 517.771057,27.787621 522.469360,25.044920 
	C528.145813,21.731243 534.255371,22.105997 540.189087,24.687136 
	C541.911194,25.436234 543.677612,26.982801 543.253906,28.817177 
	C542.774353,30.893595 540.411194,29.541264 538.921204,29.908928 
	C538.448730,30.025513 537.961121,30.080755 536.926941,30.260017 
	C540.477966,31.864220 544.921997,32.467911 543.745178,37.410690 
	C542.669739,41.927677 538.987976,43.585197 534.723816,43.971680 
	C525.707520,44.788868 521.989807,43.231297 519.521057,37.557190 
	C524.134949,35.553757 528.917603,38.532909 533.527039,37.114510 
	C530.367065,35.367611 526.717957,36.702168 523.190918,35.143673 
z"/>
<path fill="#4B95E8" opacity="1.000000" stroke="none" 
	d="
M208.232986,41.928421 
	C206.933228,44.377010 202.320053,44.757248 199.915955,42.959026 
	C196.249985,40.216953 188.526337,40.179871 184.982605,42.887321 
	C183.212036,44.240059 182.846329,44.275745 175.482864,43.645676 
	C179.667343,36.915768 183.468323,30.398647 187.706512,24.179480 
	C189.473053,21.587219 196.301392,22.618149 198.084564,25.448324 
	C201.455017,30.797750 204.721985,36.212376 208.232986,41.928421 
z"/>
<path fill="#4C96E8" opacity="1.000000" stroke="none" 
	d="
M374.037598,22.990078 
	C378.194397,22.992821 381.860992,23.075031 385.522064,22.968075 
	C387.669342,22.905344 388.517212,23.732931 388.472107,25.874466 
	C388.429688,27.888855 387.808472,28.973066 385.573914,28.905588 
	C382.412903,28.810135 379.245636,28.890676 376.081757,28.941542 
	C375.071533,28.957781 373.978210,29.093136 373.987793,30.468430 
	C373.997437,31.850487 375.098236,31.933920 376.106018,31.953741 
	C378.270569,31.996313 380.439270,31.917957 382.600189,32.019138 
	C383.952942,32.082474 385.830139,31.445551 385.925964,33.852211 
	C386.037750,36.659332 383.886139,35.853165 382.395508,35.986290 
	C381.238739,36.089603 380.052216,36.123142 378.902100,35.989071 
	C375.329651,35.572636 373.070831,36.379436 373.697662,40.695820 
	C374.236603,44.407097 371.529724,43.975346 369.175964,44.029530 
	C366.688507,44.086788 364.507263,44.187012 364.697540,40.565647 
	C364.915710,36.413391 365.018066,32.216503 364.660461,28.083149 
	C364.286743,23.763165 366.029694,22.384886 370.050934,22.965227 
	C371.193054,23.130058 372.379120,22.990208 374.037598,22.990078 
z"/>
<path fill="#4B95E7" opacity="1.000000" stroke="none" 
	d="
M405.405029,23.011169 
	C411.837494,22.992735 417.810150,22.962008 423.782349,23.004023 
	C425.660187,23.017235 427.872955,22.403179 427.909058,25.696573 
	C427.940460,28.558475 426.462646,29.170839 424.182922,28.868999 
	C420.557709,28.389013 419.472260,30.055634 419.840240,33.410183 
	C420.038055,35.213314 419.666992,37.084732 419.914368,38.875366 
	C420.493622,43.068485 418.816406,44.399830 414.678497,44.119823 
	C411.929504,43.933807 410.700897,43.245773 410.997589,40.399158 
	C411.151520,38.922226 410.951538,37.411839 411.034332,35.923397 
	C411.263977,31.794552 411.699036,27.593399 405.276123,28.821901 
	C404.274506,29.013474 403.128815,28.567614 403.161499,27.310568 
	C403.202972,25.714205 401.992279,23.454176 405.405029,23.011169 
z"/>
<path fill="#4A90E7" opacity="1.000000" stroke="none" 
	d="
M391.278198,31.097317 
	C391.281525,29.289803 391.425659,27.943661 391.261749,26.636143 
	C390.760681,22.639391 393.437988,23.078194 396.000366,22.936317 
	C398.820312,22.780174 400.306732,23.403652 400.131195,26.689642 
	C399.883575,31.326191 399.870117,35.996651 400.127594,40.632000 
	C400.333405,44.336967 398.092896,44.013329 395.681610,44.047901 
	C393.163422,44.084015 391.003693,44.098850 391.248199,40.540676 
	C391.452576,37.565926 391.282440,34.565441 391.278198,31.097317 
z"/>
<path fill="#363638" opacity="1.000000" stroke="none" 
	d="
M31.294975,31.893829 
	C29.618757,30.961058 29.446033,29.589069 30.816584,29.236769 
	C33.331997,28.590185 36.015877,28.505663 38.563202,29.422409 
	C38.743382,29.487251 38.878162,30.421856 38.679981,30.676922 
	C37.081532,32.734146 34.759552,31.745461 32.722656,31.978415 
	C32.398830,32.015450 32.065086,31.965748 31.294975,31.893829 
z"/>
<path fill="#36373E" opacity="1.000000" stroke="none" 
	d="
M33.171211,38.121048 
	C31.843958,37.956871 30.548618,38.396263 30.301786,37.164440 
	C30.067743,35.996437 31.267706,36.028442 31.990448,36.053085 
	C34.481346,36.138004 37.112843,35.423923 39.449486,37.861294 
	C37.503513,37.949417 35.557541,38.037537 33.171211,38.121048 
z"/>
<path fill="#37393C" opacity="1.000000" stroke="none" 
	d="
M62.082901,30.953785 
	C64.633728,27.201820 67.984146,29.130089 70.960228,29.361553 
	C72.222862,29.459755 72.591309,31.406799 71.286476,31.931072 
	C68.245132,33.153057 64.970314,34.428162 62.082901,30.953785 
z"/>
<path fill="#37393C" opacity="1.000000" stroke="none" 
	d="
M160.823669,28.884212 
	C162.740585,29.142212 165.039764,28.439848 164.860870,30.967857 
	C164.733749,32.763996 162.760712,32.724846 161.347107,32.927391 
	C160.382172,33.065651 159.378235,33.060772 158.404312,32.975803 
	C157.070618,32.859455 155.241409,33.546154 155.080948,31.195311 
	C154.900543,28.552345 156.845535,28.978287 158.420029,28.892555 
	C159.073578,28.856970 159.730499,28.883425 160.823669,28.884212 
z"/>
<path fill="#37393C" opacity="1.000000" stroke="none" 
	d="
M344.684509,31.615105 
	C342.021088,33.451900 339.343231,33.069431 336.757965,32.898094 
	C334.488007,32.747658 334.707336,30.870462 335.410339,29.633167 
	C336.471832,27.764887 343.476929,29.067438 344.684509,31.615105 
z"/>
<path fill="#37383A" opacity="1.000000" stroke="none" 
	d="
M92.531387,35.414619 
	C91.587479,31.941418 92.712006,29.697077 95.844948,29.072035 
	C98.448532,28.552605 101.329033,28.403364 102.655022,31.584515 
	C103.581772,33.807842 103.262314,36.196819 101.084618,37.260944 
	C98.173225,38.683586 95.001366,39.074039 92.531387,35.414619 
z"/>
<path fill="#373836" opacity="1.000000" stroke="none" 
	d="
M503.687134,29.013424 
	C504.746490,29.104696 505.490601,29.256512 506.234741,29.408325 
	C506.111267,29.618074 505.976349,30.014849 505.866150,30.008110 
	C504.949005,29.952026 504.035767,29.826429 503.124298,29.700344 
	C503.073975,29.693388 502.988739,29.460260 503.026855,29.394512 
	C503.102142,29.264622 503.252533,29.178291 503.687134,29.013424 
z"/>
<path fill="#363636" opacity="1.000000" stroke="none" 
	d="
M531.917480,28.944241 
	C532.595337,29.221434 533.886108,29.199867 532.916382,29.895452 
	C532.109497,30.474190 530.799866,30.365940 529.868286,29.514633 
	C530.441650,29.319666 531.015076,29.124693 531.917480,28.944241 
z"/>
<path fill="#383A48" opacity="1.000000" stroke="none" 
	d="
M194.278229,34.867447 
	C192.673309,35.007923 190.926712,35.775330 190.330307,34.405617 
	C189.684174,32.921669 191.353210,31.821287 192.123596,30.051710 
	C193.694305,31.525457 194.780472,32.736629 194.278229,34.867447 
z"/>
</svg>