<svg version="1.1" id="Layer_1" xmlns="http://www.w3.org/2000/svg" xmlns:xlink="http://www.w3.org/1999/xlink" x="0px" y="0px"
	 width="100%" viewBox="0 0 500 500" enable-background="new 0 0 500 500" xml:space="preserve">
<path fill="#000000" opacity="1.000000" stroke="none" 
	d="
M291.000000,501.000000 
	C194.000031,501.000000 97.500046,501.000000 1.000052,501.000000 
	C1.000035,334.333405 1.000035,167.666794 1.000017,1.000141 
	C167.666565,1.000094 334.333130,1.000094 500.999756,1.000047 
	C500.999847,167.666519 500.999847,334.333038 500.999939,500.999786 
	C431.166656,501.000000 361.333344,501.000000 291.000000,501.000000 
M417.243256,220.319946 
	C415.746155,216.086456 414.338928,211.818619 412.736237,207.625488 
	C406.330109,190.865005 396.574036,175.948273 385.786194,161.868561 
	C379.831329,154.096634 371.505371,148.187363 364.708984,141.002655 
	C356.130585,131.934143 345.462067,125.592674 334.919922,119.704597 
	C321.007080,111.933891 305.958221,106.025162 290.076141,102.975037 
	C286.774292,102.340935 287.048309,100.209045 287.183716,97.713951 
	C287.322876,95.149185 287.590149,92.329185 286.724060,90.026024 
	C284.859528,85.067986 282.682129,80.139137 279.930756,75.626373 
	C276.780365,70.459137 273.644653,64.797363 269.082489,61.105095 
	C263.921661,56.928326 257.276184,54.491291 251.076874,51.748413 
	C249.142868,50.892719 246.361496,50.883373 244.311829,51.547554 
	C236.490738,54.081921 228.742249,56.877075 221.089081,59.886189 
	C195.801483,69.828911 176.001999,86.286957 162.072678,109.752846 
	C155.691620,120.502625 149.527603,131.046875 139.016113,139.076553 
	C123.532852,150.904114 111.272346,166.099136 101.265144,182.976227 
	C92.755013,197.328522 86.362930,212.593109 82.376816,228.721375 
	C79.686752,239.605652 77.004707,250.783905 76.785393,261.879425 
	C76.649651,268.746613 75.007530,274.322083 72.532684,280.315430 
	C69.565910,287.500092 70.255882,294.468445 75.329361,300.953125 
	C77.790993,304.099487 80.029808,307.867615 80.957504,311.696350 
	C88.805969,344.087982 104.012413,372.344238 127.534081,396.018921 
	C142.344269,410.925415 159.401810,422.553070 178.529099,431.337341 
	C200.225296,441.301331 223.141129,445.642792 246.735977,446.871552 
	C253.123566,447.204224 259.580872,445.951111 266.016693,445.652008 
	C283.893219,444.821198 301.093933,440.685638 317.421265,433.710022 
	C339.930298,424.093384 360.036469,410.845001 376.961517,392.756531 
	C388.390015,380.542450 398.252869,367.362579 405.628082,352.465820 
	C409.888977,343.859406 412.762390,334.572815 416.398102,325.648560 
	C421.760773,312.485168 423.935577,298.587677 424.848907,284.613800 
	C426.256958,263.071198 424.060089,241.779907 417.243256,220.319946 
z"/>
<path fill="#1B1E25" opacity="1.000000" stroke="none" 
	d="
M417.384155,220.695648 
	C424.060089,241.779907 426.256958,263.071198 424.848907,284.613800 
	C423.935577,298.587677 421.760773,312.485168 416.398102,325.648560 
	C412.762390,334.572815 409.888977,343.859406 405.628082,352.465820 
	C398.252869,367.362579 388.390015,380.542450 376.961517,392.756531 
	C360.036469,410.845001 339.930298,424.093384 317.421265,433.710022 
	C301.093933,440.685638 283.893219,444.821198 266.016693,445.652008 
	C259.580872,445.951111 253.123566,447.204224 246.735977,446.871552 
	C223.141129,445.642792 200.225296,441.301331 178.529099,431.337341 
	C159.401810,422.553070 142.344269,410.925415 127.534081,396.018921 
	C104.012413,372.344238 88.805969,344.087982 80.957504,311.696350 
	C80.029808,307.867615 77.790993,304.099487 75.329361,300.953125 
	C70.255882,294.468445 69.565910,287.500092 72.532684,280.315430 
	C75.007530,274.322083 76.649651,268.746613 76.785393,261.879425 
	C77.004707,250.783905 79.686752,239.605652 82.376816,228.721375 
	C86.362930,212.593109 92.755013,197.328522 101.265144,182.976227 
	C111.272346,166.099136 123.532852,150.904114 139.016113,139.076553 
	C149.527603,131.046875 155.691620,120.502625 162.072678,109.752846 
	C176.001999,86.286957 195.801483,69.828911 221.089081,59.886189 
	C228.742249,56.877075 236.490738,54.081921 244.311829,51.547554 
	C246.361496,50.883373 249.142868,50.892719 251.076874,51.748413 
	C257.276184,54.491291 263.921661,56.928326 269.082489,61.105095 
	C273.644653,64.797363 276.780365,70.459137 279.930756,75.626373 
	C282.682129,80.139137 284.859528,85.067986 286.724060,90.026024 
	C287.590149,92.329185 287.322876,95.149185 287.183716,97.713951 
	C287.048309,100.209045 286.774292,102.340935 290.076141,102.975037 
	C305.958221,106.025162 321.007080,111.933891 334.919922,119.704597 
	C345.462067,125.592674 356.130585,131.934143 364.708984,141.002655 
	C371.505371,148.187363 379.831329,154.096634 385.786194,161.868561 
	C396.574036,175.948273 406.330109,190.865005 412.736237,207.625488 
	C414.338928,211.818619 415.746155,216.086456 417.384155,220.695648 
M332.713776,187.259247 
	C332.921204,184.288437 333.128632,181.317627 333.336060,178.346832 
	C333.745117,178.653107 334.154175,178.959396 334.563232,179.265686 
	C336.713654,177.141663 340.361450,175.243927 340.723297,172.849579 
	C341.668243,166.597305 335.422546,164.893188 331.719269,161.106308 
	C327.197998,166.690781 322.951660,171.935699 318.582886,177.331833 
	C320.087128,178.615768 321.309418,179.659058 323.363647,181.412415 
	C324.825073,179.395096 326.224365,177.463516 328.192291,174.746994 
	C328.877533,180.378723 324.974945,186.712402 333.690643,188.517181 
	C334.275574,191.419617 334.583588,194.026993 339.057922,193.278549 
	C340.510468,193.035568 344.260864,197.501236 344.063293,197.783218 
	C341.339996,201.669556 344.774963,202.894302 346.658691,205.304321 
	C350.589996,198.837708 354.282562,192.763733 357.942719,186.743103 
	C353.451447,180.612991 353.491943,180.715652 346.500671,183.472977 
	C342.062805,185.223236 337.482758,186.612900 332.713776,187.259247 
M358.241119,209.189865 
	C358.412506,209.337296 358.583893,209.484726 358.342896,210.171799 
	C357.280334,211.222321 355.901337,212.106384 355.238251,213.367020 
	C354.472229,214.823349 353.508636,217.167450 354.142334,218.111740 
	C354.896606,219.235703 357.242310,219.629303 358.925781,219.701355 
	C360.771484,219.780350 362.648315,219.131821 364.511597,218.800308 
	C364.631073,219.111923 364.750549,219.423523 364.869995,219.735123 
	C362.411743,221.225510 359.953461,222.715912 357.220093,224.373077 
	C358.114807,225.870087 358.884430,227.157791 359.782013,228.659607 
	C366.110107,225.269318 372.055389,222.084122 378.052032,218.871414 
	C376.690460,216.393768 375.586609,214.385086 374.523041,212.449722 
	C369.898804,213.225586 365.649384,213.938583 361.399933,214.651581 
	C361.353058,214.244415 361.306213,213.837250 361.259338,213.430099 
	C364.193573,210.506760 367.127808,207.583420 370.317261,204.405807 
	C369.115051,202.238220 367.938599,200.117111 366.698700,197.881607 
	C360.459961,201.242691 354.536835,204.433716 348.384949,207.748001 
	C349.319427,209.455658 349.993103,210.686737 350.698944,211.976593 
	C353.262054,210.795700 355.501190,209.764099 358.241119,209.189865 
M195.216721,123.799622 
	C197.759796,124.018051 200.299881,124.353218 202.846893,124.418709 
	C204.960342,124.473045 207.099579,123.971855 209.197037,124.127007 
	C220.442627,124.958824 231.666473,126.188492 242.924225,126.700211 
	C247.322693,126.900154 251.832794,125.786095 256.201691,124.849152 
	C257.646149,124.539375 258.807343,122.908829 260.098053,121.882187 
	C258.998474,120.611946 257.898865,119.341705 255.864243,116.991333 
	C259.078827,117.415291 261.527740,117.738266 263.737274,118.755707 
	C262.756683,124.031021 264.897858,125.780518 271.779236,125.326576 
	C276.687286,125.002808 279.127472,122.555275 278.865448,118.219078 
	C278.555634,113.092331 276.797119,111.723282 270.635498,111.434212 
	C273.239960,107.601814 275.844421,103.769417 278.448883,99.937019 
	C278.079132,99.569229 277.709412,99.201431 277.339661,98.833641 
	C274.944244,99.422638 272.548798,100.011635 270.153351,100.600632 
	C269.846161,100.175919 269.539001,99.751213 269.231842,99.326508 
	C271.731110,96.861237 274.230377,94.395966 277.096497,91.568840 
	C273.455750,85.088577 269.748749,78.221443 265.739136,71.535812 
	C264.690186,69.786819 262.906860,67.969414 261.073486,67.371925 
	C259.770325,66.947220 257.817474,68.516098 256.161316,69.192459 
	C253.247818,63.128651 250.220276,59.903656 247.858292,61.323826 
	C245.699966,62.621532 244.699387,65.844803 242.939209,68.611481 
	C242.316376,68.171188 241.018997,66.715576 239.434082,66.259705 
	C237.050766,65.574196 234.116547,64.676819 232.032455,65.475899 
	C225.700012,67.903908 219.509659,70.819397 213.539398,74.053459 
	C194.698013,84.259735 179.848770,98.464394 168.782227,117.059822 
	C159.103775,133.322784 148.229675,148.886505 137.596298,164.564133 
	C131.434799,173.648514 124.405083,182.147659 118.321259,191.280014 
	C112.897202,199.422012 106.299278,207.509216 103.650177,216.618347 
	C98.445351,234.515503 96.218880,253.089554 100.495506,271.851440 
	C101.757050,277.385895 101.821716,283.193176 102.551140,289.952850 
	C98.974525,283.383881 96.102608,278.109161 93.230652,272.834381 
	C83.562218,278.166046 82.332184,283.961334 88.394035,291.513489 
	C90.267860,293.847992 92.213661,296.134949 93.941010,298.574951 
	C99.389862,306.271820 106.762871,310.877197 115.903625,313.034851 
	C130.618118,316.508118 145.239487,320.382477 159.979950,323.736969 
	C170.651260,326.165466 181.432739,328.133026 192.210388,330.051788 
	C194.403061,330.442139 196.798141,329.695679 199.099930,329.473297 
	C199.173492,328.833160 199.247055,328.193054 199.320633,327.552917 
	C187.410263,317.454590 171.913498,317.129272 157.650864,313.226318 
	C159.228180,312.954346 160.804596,312.787445 162.335709,312.980316 
	C176.690491,314.788574 191.178497,315.932983 205.352432,318.687286 
	C224.686050,322.444275 243.663986,326.138763 263.630493,322.317535 
	C273.333710,320.460510 277.994507,315.355255 281.252380,307.313873 
	C267.609924,295.589417 249.440002,292.798096 233.696945,299.670593 
	C221.708817,304.903900 209.115463,306.604645 196.788055,305.877930 
	C203.348267,302.576477 210.286850,299.084625 217.225433,295.592773 
	C207.091324,295.554352 197.594009,296.724762 188.066956,297.066742 
	C178.587997,297.406921 169.234818,295.950500 160.186920,292.985992 
	C169.906723,291.736359 179.612396,291.159332 189.234009,289.926300 
	C200.988037,288.420013 212.495224,285.747284 222.886429,279.668854 
	C229.455475,275.826263 235.366226,270.620941 235.613586,262.832306 
	C235.855453,255.216232 234.807434,247.130875 232.300873,239.959167 
	C228.799637,229.941513 218.844849,224.251083 208.352478,226.187195 
	C200.187439,227.693832 192.134613,230.870056 184.623978,234.521912 
	C178.738144,237.383728 173.758881,242.110123 168.110168,245.366547 
	C167.994110,245.166138 167.878036,244.965729 167.976242,244.102325 
	C174.689926,235.387848 175.139297,225.443665 173.700500,215.113525 
	C173.280899,212.100937 171.932907,210.601181 168.684296,211.498016 
	C162.776077,213.129105 156.847122,214.685104 150.751617,216.319412 
	C152.812866,213.785248 154.936172,211.174805 157.059464,208.564377 
	C146.907852,210.813431 140.094147,217.973907 132.551392,224.029221 
	C141.509888,206.337173 154.566864,193.914200 174.562515,189.985336 
	C176.452744,189.613922 178.693863,187.971542 179.620026,186.286148 
	C183.378052,179.447479 186.833862,172.430252 190.125320,165.350662 
	C194.953949,154.964737 199.546112,144.468857 204.239594,134.020081 
	C205.752029,130.653030 204.749573,128.957565 201.075806,127.971275 
	C198.522858,127.285873 196.285812,125.423820 194.213425,123.788109 
	C194.213425,123.788109 194.506424,123.476242 195.216721,123.799622 
M316.439331,238.036804 
	C318.865906,240.059219 321.127228,242.335037 323.755219,244.048569 
	C328.475464,247.126328 329.852539,251.503372 329.735352,257.665588 
	C328.132538,255.622559 327.041382,254.233444 325.952026,252.842896 
	C316.390594,240.637848 305.686462,229.825317 290.498779,224.785492 
	C271.080231,218.341721 252.990219,228.016251 249.472336,247.011078 
	C247.582169,257.217072 248.765503,267.298737 254.047134,276.491058 
	C260.670227,288.018066 270.957092,294.526398 284.025543,298.215454 
	C279.137115,287.536377 279.686829,277.380646 281.845398,266.528381 
	C283.994781,273.452423 285.359558,279.940582 288.022675,285.842957 
	C290.717743,291.816254 294.697632,297.209900 298.238007,303.061096 
	C293.084564,309.245392 291.652191,317.037781 292.070923,325.176270 
	C292.474945,333.028351 293.440704,340.851562 294.217072,349.312958 
	C290.027039,346.275238 286.080536,343.414093 281.842346,340.341431 
	C279.764923,348.924957 280.353790,356.806396 284.923004,364.438232 
	C311.860596,341.837067 344.514954,258.715332 339.409058,225.140747 
	C331.574799,224.436783 323.514648,223.340652 315.431152,223.126999 
	C310.654877,223.000717 309.176147,225.710342 311.097839,230.053528 
	C312.283752,232.733765 314.298798,235.047150 316.439331,238.036804 
M232.394455,172.813095 
	C220.003769,175.103043 208.550217,179.738510 197.667389,186.078110 
	C192.580521,189.041367 189.451004,192.271225 189.329559,198.780502 
	C189.141998,208.832504 187.770874,218.862396 186.859589,229.388412 
	C188.272141,228.949081 189.076309,228.804108 189.785934,228.462662 
	C202.980240,222.113922 216.607574,221.758545 230.660263,225.043900 
	C236.702789,226.456589 243.187302,228.603226 249.022888,227.655930 
	C257.581970,226.266541 265.898346,222.792282 274.029846,219.495438 
	C286.530579,214.427139 299.219116,212.345291 312.554810,214.897125 
	C320.642883,216.444824 328.740845,217.940674 336.705017,219.435532 
	C320.221680,189.034241 277.847260,164.293594 232.394455,172.813095 
M241.886627,427.771362 
	C238.071426,427.421021 234.217300,427.306671 230.446823,426.685059 
	C170.756821,416.844513 128.964294,384.224304 105.840340,328.195648 
	C103.888069,323.465363 100.889442,321.984467 96.321953,321.267059 
	C120.454765,396.577393 196.752319,447.488159 282.489655,430.941772 
	C356.915100,416.578430 419.180267,347.397675 411.883301,257.874451 
	C405.800537,183.248077 349.339722,129.194046 291.741028,116.280632 
	C291.276123,118.118210 290.810791,119.957527 290.439880,121.423714 
	C299.792419,125.043694 309.061432,127.923500 317.663513,132.158066 
	C326.426788,136.471985 334.923706,141.574951 342.866913,147.267731 
	C408.256256,194.131317 426.321014,288.078430 382.280090,355.347229 
	C349.561188,405.322540 302.531616,429.103638 241.886627,427.771362 
M271.839172,334.732697 
	C270.649811,334.213257 269.333191,333.061951 268.290710,333.271881 
	C257.544891,335.436066 246.717163,337.360992 236.161819,340.260956 
	C223.342819,343.782837 210.521729,345.842987 197.244492,344.223419 
	C190.902283,343.449768 184.553741,342.728119 177.876038,341.943939 
	C200.628998,369.784485 248.311874,381.824524 281.323853,368.665710 
	C278.201385,357.586182 275.096832,346.570190 271.839172,334.732697 
M351.477356,285.871521 
	C353.302216,270.958557 352.360992,256.310822 347.394318,241.047714 
	C340.532257,283.509277 328.862793,323.125244 303.281097,358.346130 
	C326.692108,346.278839 347.063660,317.637787 351.477356,285.871521 
M255.015915,413.455719 
	C255.643875,404.576569 256.271851,395.697418 256.921692,386.508789 
	C254.068527,386.346497 251.836044,386.219482 249.417709,386.081909 
	C248.894882,392.916779 248.410858,399.244202 247.926849,405.571655 
	C244.586868,399.827332 242.095947,393.924225 239.346359,388.144196 
	C238.744843,386.879730 237.346741,385.398712 236.096466,385.158752 
	C233.240173,384.610657 230.248352,384.768677 227.099091,384.630554 
	C226.344849,395.222565 225.618896,405.417572 224.874451,415.872162 
	C227.716263,415.872162 229.837509,415.872162 232.378937,415.872162 
	C232.855423,409.413818 233.328430,403.002838 233.801422,396.591858 
	C236.663803,401.109161 239.305176,405.480347 240.463974,410.214417 
	C242.040756,416.656158 246.274597,417.600433 251.742828,417.857666 
	C254.747894,417.998993 255.099030,416.620697 255.015915,413.455719 
M264.166565,396.309387 
	C265.409790,402.910217 266.653015,409.511078 267.933044,416.307190 
	C271.487823,415.737579 274.427795,415.318359 277.346710,414.784088 
	C280.225494,414.257202 283.082947,413.613953 286.253540,412.958984 
	C285.696808,410.484497 285.241150,408.459290 284.792267,406.464233 
	C281.258545,406.988708 278.210510,407.441132 274.988464,407.919373 
	C274.651001,405.829285 274.376068,404.126373 274.091125,402.361725 
	C277.246796,401.723938 279.973236,401.172882 283.148621,400.531097 
	C282.705994,398.210266 282.300018,396.081665 281.898102,393.974396 
	C272.732330,395.545227 272.732330,395.545227 272.292358,390.800995 
	C275.420044,390.123199 278.596405,389.434845 281.860657,388.727478 
	C281.403351,386.461792 281.017731,384.551422 280.555847,382.263000 
	C274.546600,383.325500 268.745575,384.351227 262.506226,385.454407 
	C263.051514,388.988281 263.549652,392.216492 264.166565,396.309387 
M314.912445,382.050781 
	C318.807281,382.121094 322.708069,382.089722 326.593689,382.317474 
	C327.933502,382.395996 329.235474,383.120209 330.554688,383.549500 
	C329.855896,384.747223 329.444641,386.460785 328.402130,387.041931 
	C325.720184,388.536987 322.758514,389.530273 318.353363,391.375580 
	C321.292938,393.202911 324.272125,396.322083 325.739258,395.725159 
	C329.852142,394.051697 333.749115,391.259491 336.949005,388.113098 
	C339.583099,385.523041 339.829285,381.306946 337.273499,378.508850 
	C335.282074,376.328644 332.074219,374.946594 329.149536,374.044159 
	C327.266785,373.463196 324.920807,374.554047 322.777252,374.590485 
	C321.228210,374.616821 319.670593,374.141510 318.116821,373.889954 
	C318.015533,373.281189 317.914246,372.672424 317.812958,372.063660 
	C320.882599,370.475861 323.952240,368.888031 327.238647,367.188110 
	C326.768829,365.243164 326.273376,363.192047 325.607635,360.436005 
	C321.903351,362.265411 318.416107,363.494049 315.491974,365.531067 
	C308.703156,370.260376 308.420685,375.574371 314.912445,382.050781 
M288.130310,391.039764 
	C291.192291,396.002533 296.362823,395.242706 301.057312,395.919098 
	C302.364685,396.107452 303.562439,397.056885 304.810516,397.657166 
	C303.781921,398.773346 302.942139,400.487549 301.686340,400.884064 
	C298.876312,401.771301 295.859100,402.002411 292.483887,402.575928 
	C293.270660,404.628387 294.081299,406.743103 294.846924,408.740417 
	C300.743469,409.203247 306.424377,407.401337 309.869995,404.126190 
	C312.798126,401.342804 313.860504,397.972504 312.629883,394.138214 
	C311.391693,390.280243 308.617371,388.160370 304.491425,387.880798 
	C302.332611,387.734528 300.141968,387.639984 298.045197,387.168610 
	C296.962830,386.925262 296.054169,385.909332 295.066986,385.242523 
	C295.973053,384.407959 296.749634,383.155975 297.812317,382.826324 
	C299.977448,382.154724 302.296844,381.980438 304.627075,381.588715 
	C304.627075,379.400818 304.627075,377.206787 304.627075,374.256561 
	C300.762329,375.208496 297.264862,375.652893 294.106689,376.933838 
	C287.337830,379.679352 285.646362,383.643677 288.130310,391.039764 
M173.997391,373.617767 
	C172.903305,372.665466 171.809219,371.713165 170.583862,370.646576 
	C171.963196,369.027130 173.099976,367.692444 174.264740,366.324921 
	C177.094559,368.466217 179.575363,370.343414 182.243332,372.362244 
	C183.742813,370.410095 184.998215,368.775726 186.351151,367.014374 
	C181.223434,363.016663 176.553787,359.376068 171.743515,355.625824 
	C165.144028,364.073212 158.847107,372.133270 152.430389,380.346710 
	C154.882919,382.267975 156.897385,383.846069 158.972275,385.471497 
	C161.664825,382.095612 163.922852,379.264496 166.231689,376.369690 
	C168.887085,378.315704 171.233139,380.035004 173.744446,381.875427 
	C175.120590,380.097870 176.325180,378.541931 177.668976,376.806152 
	C176.528580,375.786011 175.567276,374.926056 173.997391,373.617767 
M377.338074,229.085205 
	C372.079742,230.461517 366.821411,231.837830 361.391144,233.259140 
	C361.840576,235.029709 362.189941,236.406143 362.576294,237.928345 
	C366.054016,237.180832 369.228119,236.498581 372.402222,235.816330 
	C370.886169,237.655426 368.890869,238.537491 367.358978,239.929504 
	C365.998413,241.165833 365.151917,242.967911 364.078491,244.520248 
	C365.687134,245.457275 367.195435,246.800522 368.929718,247.229004 
	C371.120911,247.770370 373.496246,247.566360 375.792145,247.683884 
	C375.832184,247.987000 375.872223,248.290131 375.912292,248.593246 
	C372.659210,249.485809 369.406158,250.378372 365.782684,251.372574 
	C366.364197,253.144135 366.850525,254.625763 367.393829,256.280945 
	C374.127380,254.569214 380.515625,252.945282 387.346558,251.208786 
	C386.706757,248.571136 386.147034,246.263718 385.621643,244.097656 
	C380.744690,243.783920 376.401031,243.504471 370.581451,243.130081 
	C373.987762,241.064453 376.043518,239.788239 378.127411,238.559647 
	C384.187927,234.986618 384.201965,234.960526 380.992096,228.302582 
	C380.049255,228.518387 379.087036,228.738632 377.338074,229.085205 
M218.217621,381.311462 
	C212.895691,379.549042 207.573746,377.786621 201.860092,375.894470 
	C201.098175,378.125336 200.425873,380.093750 199.693314,382.238586 
	C202.143402,383.232941 204.249664,384.087738 206.729095,385.094025 
	C204.192322,392.715759 201.710342,400.172882 199.096207,408.027039 
	C201.878784,408.971832 204.397507,409.827026 207.074203,410.735870 
	C209.842834,402.671722 212.360474,395.338623 214.953278,387.786621 
	C217.494644,388.536407 219.654449,389.173615 222.173004,389.916687 
	C222.912216,387.764191 223.590820,385.788147 224.361130,383.545044 
	C222.326233,382.838654 220.628983,382.249451 218.217621,381.311462 
M373.594391,339.164398 
	C373.520721,337.950684 373.238617,336.706635 373.410126,335.528595 
	C374.088562,330.868195 370.805695,328.014374 367.712128,326.550262 
	C363.378204,324.499054 358.227051,326.151947 355.524963,329.811859 
	C353.065338,333.143341 352.460480,338.331604 355.465302,341.844299 
	C357.514526,344.239868 361.263519,346.340881 364.313965,346.428314 
	C368.164642,346.538666 371.640442,343.926147 373.594391,339.164398 
M234.244385,151.284973 
	C234.446503,153.091080 234.648605,154.897186 234.906158,157.198837 
	C238.383514,156.837753 241.772125,156.910553 244.877670,156.008682 
	C246.830048,155.441696 249.338791,153.688721 249.822296,151.968658 
	C250.397247,149.923233 249.068604,147.342697 248.576828,145.050186 
	C248.409485,142.551239 249.242096,138.889679 247.882538,137.668304 
	C243.619247,133.838364 238.338638,136.346939 233.375015,136.235306 
	C233.668411,141.416168 233.921631,145.887558 234.244385,151.284973 
M269.762634,157.588593 
	C270.736115,157.657822 271.709625,157.727051 273.162537,157.830368 
	C271.525543,154.517731 270.075043,151.582428 268.624512,148.647125 
	C269.041687,148.720810 269.458832,148.794495 269.876007,148.868195 
	C270.574127,145.897354 272.680542,142.303955 271.696045,140.076965 
	C269.141357,134.298141 262.919037,136.442139 257.729156,134.990280 
	C256.968170,142.256897 256.264740,148.973923 255.539139,155.902695 
	C257.536224,156.109283 259.131531,156.274307 260.906403,156.457916 
	C261.396179,153.850647 261.829407,151.544449 262.261078,149.246292 
	C264.684723,152.188446 266.849884,154.816879 269.762634,157.588593 
M374.937531,279.835815 
	C372.684387,279.572144 370.431213,279.308472 367.983398,279.022003 
	C367.843689,281.212860 367.733612,282.939178 367.625732,284.631073 
	C370.447968,284.995941 372.624817,285.277374 375.556702,285.656403 
	C371.771088,289.347015 364.329529,288.739624 366.695587,296.393341 
	C369.665771,294.910095 372.474457,293.507507 375.283142,292.104919 
	C375.208130,292.575073 375.133118,293.045227 375.058136,293.515350 
	C378.127380,294.141785 381.922089,296.213867 384.122772,295.109467 
	C389.588043,292.366882 387.686768,286.321014 388.838196,281.320160 
	C384.064026,280.803528 379.941711,280.357422 374.937531,279.835815 
M296.829010,144.767685 
	C294.903656,143.536713 293.128571,141.839539 291.024994,141.161469 
	C284.495605,139.056732 279.452606,142.435760 277.975769,149.528748 
	C276.557007,156.342667 279.755127,161.030380 286.514954,162.045151 
	C295.143188,163.340393 300.532471,154.952637 296.829010,144.767685 
M196.201233,372.220886 
	C194.457520,371.345734 192.713806,370.470581 190.687332,369.453491 
	C185.640594,378.700775 180.760468,387.642761 175.717590,396.882935 
	C178.350418,398.301544 180.626129,399.527740 183.238724,400.935455 
	C188.062424,392.086029 192.749466,383.546967 197.325012,374.948608 
	C197.606949,374.418762 197.009705,373.421051 196.201233,372.220886 
M320.865204,154.524887 
	C313.524963,149.555115 308.071472,149.623810 304.223267,154.953613 
	C301.823059,158.277924 300.066406,162.057968 302.074554,166.116638 
	C304.597870,171.216461 309.468353,172.679245 314.648651,173.632050 
	C316.454071,170.229584 318.066010,167.191711 319.867126,163.797363 
	C317.163208,162.337814 314.755798,161.038330 310.942108,158.979736 
	C311.191498,161.531799 311.274048,162.889801 311.472809,164.230591 
	C311.606415,165.132034 311.904541,166.009094 312.129059,166.897064 
	C311.024170,166.816864 309.292389,167.135483 308.937714,166.577988 
	C308.049377,165.181656 307.096375,163.251526 307.389313,161.778107 
	C308.658813,155.393295 313.092072,154.647690 320.979340,160.492065 
	C321.166412,158.130371 321.289703,156.574142 320.865204,154.524887 
M367.735596,268.068970 
	C367.837830,270.020935 367.940033,271.972900 368.060852,274.279968 
	C369.873413,273.982330 371.217438,273.761627 372.440491,273.560791 
	C372.440491,271.246582 372.440491,269.429749 372.440491,267.382660 
	C373.588409,267.295319 374.669220,267.213104 375.861694,267.122375 
	C376.144592,269.173615 376.387543,270.935150 376.680847,273.061707 
	C378.216217,272.959015 379.567169,272.868683 380.080719,272.834351 
	C381.004730,270.339905 381.668945,268.546722 382.333191,266.753540 
	C382.822876,266.918579 383.312561,267.083618 383.802277,267.248657 
	C384.036804,269.160736 384.271332,271.072845 384.528564,273.169983 
	C386.138306,273.081055 387.388977,273.011932 389.029938,272.921295 
	C388.737946,268.767975 388.472595,264.993134 388.172791,260.728577 
	C381.151886,261.079376 374.409912,261.416260 367.381836,261.767426 
	C367.501251,263.936462 367.591309,265.572540 367.735596,268.068970 
z"/>
<path fill="#F1D1B5" opacity="1.000000" stroke="none" 
	d="
M168.376846,246.008118 
	C173.758881,242.110123 178.738144,237.383728 184.623978,234.521912 
	C192.134613,230.870056 200.187439,227.693832 208.352478,226.187195 
	C218.844849,224.251083 228.799637,229.941513 232.300873,239.959167 
	C234.807434,247.130875 235.855453,255.216232 235.613586,262.832306 
	C235.366226,270.620941 229.455475,275.826263 222.886429,279.668854 
	C212.495224,285.747284 200.988037,288.420013 189.234009,289.926300 
	C179.612396,291.159332 169.906723,291.736359 160.186920,292.985992 
	C169.234818,295.950500 178.587997,297.406921 188.066956,297.066742 
	C197.594009,296.724762 207.091324,295.554352 217.225433,295.592773 
	C210.286850,299.084625 203.348267,302.576477 196.788055,305.877930 
	C209.115463,306.604645 221.708817,304.903900 233.696945,299.670593 
	C249.440002,292.798096 267.609924,295.589417 281.252380,307.313873 
	C277.994507,315.355255 273.333710,320.460510 263.630493,322.317535 
	C243.663986,326.138763 224.686050,322.444275 205.352432,318.687286 
	C191.178497,315.932983 176.690491,314.788574 162.335709,312.980316 
	C160.804596,312.787445 159.228180,312.954346 157.650864,313.226318 
	C171.913498,317.129272 187.410263,317.454590 199.320633,327.552917 
	C199.247055,328.193054 199.173492,328.833160 199.099930,329.473297 
	C196.798141,329.695679 194.403061,330.442139 192.210388,330.051788 
	C181.432739,328.133026 170.651260,326.165466 159.979950,323.736969 
	C145.239487,320.382477 130.618118,316.508118 115.903625,313.034851 
	C106.762871,310.877197 99.389862,306.271820 93.941010,298.574951 
	C92.213661,296.134949 90.267860,293.847992 88.394035,291.513489 
	C82.332184,283.961334 83.562218,278.166046 93.230652,272.834381 
	C96.102608,278.109161 98.974525,283.383881 102.551140,289.952850 
	C101.821716,283.193176 101.757050,277.385895 100.495506,271.851440 
	C96.218880,253.089554 98.445351,234.515503 103.650177,216.618347 
	C106.299278,207.509216 112.897202,199.422012 118.321259,191.280014 
	C124.405083,182.147659 131.434799,173.648514 137.596298,164.564133 
	C148.229675,148.886505 159.103775,133.322784 168.782227,117.059822 
	C179.848770,98.464394 194.698013,84.259735 213.539398,74.053459 
	C219.509659,70.819397 225.700012,67.903908 232.032455,65.475899 
	C234.116547,64.676819 237.050766,65.574196 239.434082,66.259705 
	C241.018997,66.715576 242.316376,68.171188 242.939209,68.611481 
	C244.699387,65.844803 245.699966,62.621532 247.858292,61.323826 
	C250.220276,59.903656 253.247818,63.128651 256.161316,69.192459 
	C257.817474,68.516098 259.770325,66.947220 261.073486,67.371925 
	C262.906860,67.969414 264.690186,69.786819 265.739136,71.535812 
	C269.748749,78.221443 273.455750,85.088577 277.096497,91.568840 
	C274.230377,94.395966 271.731110,96.861237 269.231842,99.326508 
	C269.539001,99.751213 269.846161,100.175919 270.153351,100.600632 
	C272.548798,100.011635 274.944244,99.422638 277.339661,98.833641 
	C277.709412,99.201431 278.079132,99.569229 278.448883,99.937019 
	C275.844421,103.769417 273.239960,107.601814 270.853210,111.735565 
	C271.070953,112.036926 271.070251,111.944794 270.694000,111.870712 
	C270.024780,112.208359 269.731812,112.620087 269.145935,113.090401 
	C267.227600,114.786400 265.602112,116.423820 263.976624,118.061234 
	C261.527740,117.738266 259.078827,117.415291 255.864243,116.991333 
	C257.898865,119.341705 258.998474,120.611946 260.098053,121.882187 
	C258.807343,122.908829 257.646149,124.539375 256.201691,124.849152 
	C251.832794,125.786095 247.322693,126.900154 242.924225,126.700211 
	C231.666473,126.188492 220.442627,124.958824 209.197037,124.127007 
	C207.099579,123.971855 204.960342,124.473045 202.846893,124.418709 
	C200.299881,124.353218 197.759796,124.018051 194.637177,123.436249 
	C193.793030,123.097130 193.528427,123.121368 193.263809,123.145615 
	C193.478424,123.459557 193.693024,123.773506 193.907623,124.087456 
	C196.285812,125.423820 198.522858,127.285873 201.075806,127.971275 
	C204.749573,128.957565 205.752029,130.653030 204.239594,134.020081 
	C199.546112,144.468857 194.953949,154.964737 190.125320,165.350662 
	C186.833862,172.430252 183.378052,179.447479 179.620026,186.286148 
	C178.693863,187.971542 176.452744,189.613922 174.562515,189.985336 
	C154.566864,193.914200 141.509888,206.337173 132.551392,224.029221 
	C140.094147,217.973907 146.907852,210.813431 157.059464,208.564377 
	C154.936172,211.174805 152.812866,213.785248 150.751617,216.319412 
	C156.847122,214.685104 162.776077,213.129105 168.684296,211.498016 
	C171.932907,210.601181 173.280899,212.100937 173.700500,215.113525 
	C175.139297,225.443665 174.689926,235.387848 167.576675,244.616119 
	C167.176727,245.567474 167.176361,246.005066 167.175980,246.442627 
	C167.576263,246.297791 167.976547,246.152954 168.376846,246.008118 
M169.996384,134.799988 
	C162.979126,138.373749 159.592117,144.533081 157.940613,151.940643 
	C162.316132,146.314453 166.691635,140.688278 171.605072,134.941330 
	C171.632370,134.715073 171.659653,134.488800 171.686951,134.262543 
	C171.352600,134.409653 171.018250,134.556763 169.996384,134.799988 
M234.096420,97.651886 
	C234.528763,102.391861 230.313034,98.159340 228.949234,101.778816 
	C228.902527,101.816795 227.822037,102.695107 226.513412,103.758881 
	C230.372070,104.260132 235.084045,102.853424 235.075500,109.183983 
	C238.064438,105.004829 236.506989,100.992920 235.109589,96.110970 
	C234.397614,91.054573 237.617050,85.303284 233.346268,80.875931 
	C232.847961,80.953880 232.349670,81.031822 231.851364,81.109764 
	C232.626434,86.404556 233.401505,91.699341 234.096420,97.651886 
M230.493637,114.582413 
	C228.732483,114.965919 225.877182,114.823349 225.396729,115.822632 
	C223.134766,120.527115 220.702530,117.082054 219.659393,115.681168 
	C218.212067,113.737480 217.949478,110.911591 217.651245,107.881111 
	C222.457764,99.987755 216.477661,96.657158 211.115173,92.954475 
	C211.505142,94.593323 211.879837,96.167961 212.283966,97.866341 
	C210.171448,97.982681 208.272049,98.087296 206.414932,98.189575 
	C209.292908,102.081726 216.357651,100.322235 215.867157,107.609535 
	C212.657333,111.233383 209.447525,114.857224 206.275772,118.438118 
	C212.125046,121.194473 212.125046,121.194473 216.621811,118.357178 
	C219.280609,119.706070 221.797745,120.983086 224.101608,122.151901 
	C226.251358,119.501816 228.522079,116.702629 231.104980,113.624268 
	C231.365723,113.486435 231.626465,113.348602 231.887207,113.210762 
	C231.815262,113.108704 231.743317,113.006645 231.671371,112.904579 
	C231.409195,113.256310 231.147018,113.608047 230.493637,114.582413 
M157.934448,190.104462 
	C162.894730,188.291901 167.862808,186.500198 172.809036,184.650055 
	C173.860062,184.256912 175.307800,183.916656 175.763336,183.100342 
	C179.104645,177.112610 182.239944,171.009933 185.440186,164.943497 
	C185.032883,164.664948 184.625580,164.386414 184.218292,164.107880 
	C181.223602,167.506561 178.228928,170.905258 175.234238,174.303940 
	C175.014618,174.085571 174.794983,173.867203 174.575348,173.648819 
	C175.408142,170.899582 176.240936,168.150345 177.073730,165.401123 
	C176.587540,165.081787 176.101349,164.762466 175.615173,164.443146 
	C169.202240,172.791519 162.789307,181.139908 156.036499,189.962494 
	C156.083511,190.224106 156.130524,190.485718 156.177536,190.747314 
	C156.525528,190.572937 156.873535,190.398544 157.934448,190.104462 
M174.901215,146.406616 
	C177.907928,142.095047 180.914642,137.783463 183.921341,133.471878 
	C183.512756,133.201767 183.104156,132.931656 182.695572,132.661545 
	C162.405472,148.034637 152.512802,170.450287 143.157043,193.239990 
	C153.592773,177.818848 164.028488,162.397720 174.901215,146.406616 
M106.932526,266.382385 
	C106.932526,255.733383 106.932526,245.084381 106.932526,234.435379 
	C106.281525,234.444168 105.630516,234.452957 104.979515,234.461746 
	C102.226868,247.889862 102.222641,261.259125 106.577782,274.556519 
	C106.695961,272.148071 106.814140,269.739624 106.932526,266.382385 
M252.284912,107.509178 
	C252.084961,105.699226 251.884995,103.889275 251.685028,102.079315 
	C251.294586,102.119987 250.904160,102.160660 250.513718,102.201324 
	C250.513718,103.663628 250.513718,105.125923 250.513718,106.588226 
	C250.284576,106.139206 250.055420,105.690186 249.826279,105.241165 
	C246.395447,106.109100 242.964615,106.977043 238.808777,108.028381 
	C242.015732,108.925217 244.699326,108.986237 246.272751,110.338753 
	C247.482574,111.378731 247.295029,114.044304 248.133255,117.797653 
	C249.831787,113.900902 251.057816,111.088150 252.284912,107.509178 
M264.973602,101.424614 
	C262.739380,101.857246 260.505127,102.289879 258.270905,102.722511 
	C258.565369,103.007187 258.859833,103.291862 259.154297,103.576546 
	C258.259888,104.648842 257.365509,105.721146 256.386932,106.894371 
	C259.322601,106.894371 262.240356,106.894371 265.279083,106.894371 
	C264.960388,108.793129 264.745575,110.072952 264.530762,111.352783 
	C264.949005,111.429665 265.367279,111.506554 265.785522,111.583443 
	C266.220551,109.301666 266.975281,107.019218 266.970490,104.738365 
	C266.967651,103.374023 265.775726,102.012177 264.973602,101.424614 
M126.553360,271.238403 
	C130.712311,269.926056 134.871262,268.613739 139.030212,267.301392 
	C138.939774,266.680695 138.849335,266.059998 138.758896,265.439331 
	C135.479538,265.593719 132.030807,265.199738 128.993530,266.137909 
	C127.513153,266.595184 126.800529,269.538086 126.553360,271.238403 
M233.371078,123.326385 
	C238.770676,123.326385 244.170258,123.326385 250.265335,123.326385 
	C243.268341,118.750488 236.986115,121.920906 230.662766,122.892860 
	C231.288116,122.995316 231.913467,123.097778 233.371078,123.326385 
M170.380325,283.811249 
	C169.557434,283.860443 168.731461,283.880493 167.912521,283.967102 
	C167.096588,284.053406 166.287704,284.206482 165.475739,284.330292 
	C165.555283,284.806488 165.634842,285.282654 165.714386,285.758850 
	C172.815414,286.275024 179.684631,284.934540 186.320343,281.682770 
	C181.294174,282.375305 176.268021,283.067810 170.380325,283.811249 
M246.787292,76.830475 
	C247.184067,81.790733 247.580841,86.750992 247.977615,91.711250 
	C248.635086,91.618675 249.292557,91.526108 249.950027,91.433533 
	C249.139755,86.671738 248.329483,81.909935 246.787292,76.830475 
M261.210052,78.471344 
	C260.363983,76.997543 259.517914,75.523743 258.671844,74.049950 
	C258.155731,74.310295 257.639618,74.570641 257.123505,74.830986 
	C258.265320,78.224182 259.407166,81.617386 260.548981,85.010582 
	C260.968140,84.930740 261.387299,84.850891 261.806458,84.771049 
	C261.634857,82.936111 261.463226,81.101181 261.210052,78.471344 
M241.626266,104.513382 
	C241.626266,104.513382 241.548691,104.534622 241.626266,104.513382 
M165.003235,247.510895 
	C165.300705,247.545959 165.598190,247.581039 165.895660,247.616104 
	C165.764893,247.420151 165.634125,247.224197 165.003235,247.510895 
M185.505188,163.131302 
	C185.419830,163.351822 185.334457,163.572342 185.249100,163.792877 
	C185.483231,163.726791 185.717377,163.660721 185.505188,163.131302 
z"/>
<path fill="#F2D2B6" opacity="1.000000" stroke="none" 
	d="
M316.190491,237.781006 
	C314.298798,235.047150 312.283752,232.733765 311.097839,230.053528 
	C309.176147,225.710342 310.654877,223.000717 315.431152,223.126999 
	C323.514648,223.340652 331.574799,224.436783 339.409058,225.140747 
	C344.514954,258.715332 311.860596,341.837067 284.923004,364.438232 
	C280.353790,356.806396 279.764923,348.924957 281.842346,340.341431 
	C286.080536,343.414093 290.027039,346.275238 294.217072,349.312958 
	C293.440704,340.851562 292.474945,333.028351 292.070923,325.176270 
	C291.652191,317.037781 293.084564,309.245392 298.238007,303.061096 
	C294.697632,297.209900 290.717743,291.816254 288.022675,285.842957 
	C285.359558,279.940582 283.994781,273.452423 281.845398,266.528381 
	C279.686829,277.380646 279.137115,287.536377 284.025543,298.215454 
	C270.957092,294.526398 260.670227,288.018066 254.047134,276.491058 
	C248.765503,267.298737 247.582169,257.217072 249.472336,247.011078 
	C252.990219,228.016251 271.080231,218.341721 290.498779,224.785492 
	C305.686462,229.825317 316.390594,240.637848 325.952026,252.842896 
	C327.041382,254.233444 328.132538,255.622559 329.735352,257.665588 
	C329.852539,251.503372 328.475464,247.126328 323.755219,244.048569 
	C321.127228,242.335037 318.865906,240.059219 316.190491,237.781006 
M255.322617,264.239197 
	C255.361145,264.728790 255.399673,265.218414 255.390884,265.106659 
	C255.385025,265.084076 255.228912,264.482117 254.910522,262.969543 
	C254.910522,256.335541 254.910522,249.701538 254.910522,242.408691 
	C251.651413,249.249130 251.774445,255.807739 253.239182,262.453613 
	C253.362396,263.012726 254.466751,263.355621 255.322617,264.239197 
M262.412811,241.341949 
	C262.660950,240.176804 262.909088,239.011658 263.380951,236.795898 
	C259.127991,242.469421 257.543701,249.057983 259.539337,252.198257 
	C260.467072,248.613068 261.317017,245.328476 262.412811,241.341949 
z"/>
<path fill="#37B3FB" opacity="1.000000" stroke="none" 
	d="
M232.818527,172.739594 
	C277.847260,164.293594 320.221680,189.034241 336.705017,219.435532 
	C328.740845,217.940674 320.642883,216.444824 312.554810,214.897125 
	C299.219116,212.345291 286.530579,214.427139 274.029846,219.495438 
	C265.898346,222.792282 257.581970,226.266541 249.022888,227.655930 
	C243.187302,228.603226 236.702789,226.456589 230.660263,225.043900 
	C216.607574,221.758545 202.980240,222.113922 189.785934,228.462662 
	C189.076309,228.804108 188.272141,228.949081 186.859589,229.388412 
	C187.770874,218.862396 189.141998,208.832504 189.329559,198.780502 
	C189.451004,192.271225 192.580521,189.041367 197.667389,186.078110 
	C208.550217,179.738510 220.003769,175.103043 232.818527,172.739594 
M269.914642,188.047318 
	C271.459167,181.945831 266.637207,178.023315 263.355316,180.525253 
	C261.011047,182.312408 260.126587,186.663208 259.712585,190.008881 
	C259.550873,191.315613 262.256042,193.945312 264.010254,194.322510 
	C267.849426,195.148071 268.855103,191.785233 269.914642,188.047318 
M276.839264,186.892929 
	C277.679260,187.205811 278.519226,187.518692 279.359222,187.831543 
	C278.816315,188.578201 278.426392,189.563431 277.702393,190.027679 
	C275.338593,191.543427 272.852966,192.869186 269.200012,194.964447 
	C272.604340,196.336838 274.348785,197.233582 276.200806,197.724396 
	C277.637878,198.105255 279.209320,197.979202 280.721039,198.078461 
	C279.853821,196.711273 278.986633,195.344086 278.020782,193.821365 
	C278.778229,193.391678 280.275879,193.007904 280.966614,192.045197 
	C282.109497,190.452271 283.896576,187.549133 283.344055,186.862732 
	C281.985138,185.174438 279.545380,183.837051 277.358826,183.484787 
	C275.306549,183.154144 273.696503,184.532745 276.839264,186.892929 
M292.300903,193.525360 
	C289.070190,195.403976 285.839447,197.282578 281.764984,199.651825 
	C285.358459,201.697205 288.272430,203.355835 291.186432,205.014481 
	C291.616364,204.642181 292.046295,204.269897 292.476196,203.897614 
	C291.567169,202.432541 290.658112,200.967468 289.694580,199.414597 
	C292.682678,198.194260 297.587036,197.945267 296.293030,192.871887 
	C295.356262,189.199020 291.953430,188.337448 286.809998,189.928253 
	C289.149689,191.321518 290.467102,192.106018 292.300903,193.525360 
M218.372498,191.242401 
	C217.376678,191.056274 216.380844,190.870148 213.938370,190.413635 
	C216.441330,189.516785 217.531052,189.259766 218.468979,188.732651 
	C218.922256,188.477921 219.359192,187.689774 219.311279,187.190353 
	C219.263931,186.696732 218.346008,185.809250 218.237488,185.869141 
	C215.918686,187.149063 212.686661,188.028915 211.637161,190.035339 
	C210.336044,192.522797 212.525238,194.604691 215.510895,195.012451 
	C216.788101,195.186874 218.060852,195.393860 219.335632,195.586044 
	C219.325394,195.975006 219.315155,196.363953 219.304916,196.752914 
	C217.747559,197.395035 216.190216,198.037140 214.632858,198.679260 
	C214.615280,199.158081 214.597702,199.636902 214.580124,200.115723 
	C216.013168,200.313919 217.850922,201.160080 218.792786,200.571838 
	C220.604950,199.440033 222.847168,197.633682 223.109833,195.842880 
	C223.298355,194.557724 220.559525,192.843155 218.372498,191.242401 
M212.786331,203.347992 
	C211.967590,197.997910 208.913010,203.942413 207.056976,201.943008 
	C207.729401,200.410141 208.474365,198.711945 209.619064,196.102493 
	C206.994522,196.852295 205.606537,197.248825 202.959320,198.005112 
	C204.819565,195.785965 205.799561,194.616898 206.779556,193.447830 
	C206.528687,192.952179 206.277802,192.456528 206.026917,191.960876 
	C203.553467,193.164032 201.080032,194.367188 198.198334,195.768921 
	C200.605148,199.389755 202.506165,202.280640 204.444733,205.146133 
	C204.989822,205.951889 205.645126,206.683105 206.464447,207.720047 
	C208.501480,206.392868 210.411392,205.148529 212.786331,203.347992 
M247.063293,193.115662 
	C248.552658,193.147522 250.077469,193.392929 251.521759,193.153214 
	C253.071808,192.895950 254.546143,192.182663 256.053528,191.668365 
	C254.757294,190.856857 253.461044,190.045364 252.104126,189.195862 
	C253.783386,186.564545 258.414368,184.145782 254.664581,180.263397 
	C252.071365,177.578491 248.732971,178.370743 245.240662,182.139328 
	C248.056931,182.362000 249.871719,182.505493 252.657990,182.725815 
	C251.103607,184.714569 249.742020,186.211639 248.674423,187.895111 
	C247.708771,189.417862 247.064133,191.144165 247.063293,193.115662 
M229.782715,194.804962 
	C232.091278,196.974747 233.195190,196.195038 233.233261,193.307129 
	C233.279388,189.805801 229.213745,186.043442 233.932388,182.850479 
	C233.047501,182.264252 232.052948,181.066360 231.297440,181.201813 
	C228.586609,181.687836 225.956635,182.624786 224.257004,183.114426 
	C226.105408,186.967361 227.800613,190.500992 229.782715,194.804962 
z"/>
<path fill="#37B0F7" opacity="1.000000" stroke="none" 
	d="
M242.355865,427.797668 
	C302.531616,429.103638 349.561188,405.322540 382.280090,355.347229 
	C426.321014,288.078430 408.256256,194.131317 342.866913,147.267731 
	C334.923706,141.574951 326.426788,136.471985 317.663513,132.158066 
	C309.061432,127.923500 299.792419,125.043694 290.439880,121.423714 
	C290.810791,119.957527 291.276123,118.118210 291.741028,116.280632 
	C349.339722,129.194046 405.800537,183.248077 411.883301,257.874451 
	C419.180267,347.397675 356.915100,416.578430 282.489655,430.941772 
	C196.752319,447.488159 120.454765,396.577393 96.321953,321.267059 
	C100.889442,321.984467 103.888069,323.465363 105.840340,328.195648 
	C128.964294,384.224304 170.756821,416.844513 230.446823,426.685059 
	C234.217300,427.306671 238.071426,427.421021 242.355865,427.797668 
z"/>
<path fill="#38B4FC" opacity="1.000000" stroke="none" 
	d="
M271.915710,335.143433 
	C275.096832,346.570190 278.201385,357.586182 281.323853,368.665710 
	C248.311874,381.824524 200.628998,369.784485 177.876038,341.943939 
	C184.553741,342.728119 190.902283,343.449768 197.244492,344.223419 
	C210.521729,345.842987 223.342819,343.782837 236.161819,340.260956 
	C246.717163,337.360992 257.544891,335.436066 268.290710,333.271881 
	C269.333191,333.061951 270.649811,334.213257 271.915710,335.143433 
z"/>
<path fill="#F8FAFB" opacity="1.000000" stroke="none" 
	d="
M351.360657,286.301819 
	C347.063660,317.637787 326.692108,346.278839 303.281097,358.346130 
	C328.862793,323.125244 340.532257,283.509277 347.394318,241.047714 
	C352.360992,256.310822 353.302216,270.958557 351.360657,286.301819 
z"/>
<path fill="#F6F6F7" opacity="1.000000" stroke="none" 
	d="
M255.001389,413.903625 
	C255.099030,416.620697 254.747894,417.998993 251.742828,417.857666 
	C246.274597,417.600433 242.040756,416.656158 240.463974,410.214417 
	C239.305176,405.480347 236.663803,401.109161 233.801422,396.591858 
	C233.328430,403.002838 232.855423,409.413818 232.378937,415.872162 
	C229.837509,415.872162 227.716263,415.872162 224.874451,415.872162 
	C225.618896,405.417572 226.344849,395.222565 227.099091,384.630554 
	C230.248352,384.768677 233.240173,384.610657 236.096466,385.158752 
	C237.346741,385.398712 238.744843,386.879730 239.346359,388.144196 
	C242.095947,393.924225 244.586868,399.827332 247.926849,405.571655 
	C248.410858,399.244202 248.894882,392.916779 249.417709,386.081909 
	C251.836044,386.219482 254.068527,386.346497 256.921692,386.508789 
	C256.271851,395.697418 255.643875,404.576569 255.001389,413.903625 
z"/>
<path fill="#F7F7F7" opacity="1.000000" stroke="none" 
	d="
M264.107178,395.877045 
	C263.549652,392.216492 263.051514,388.988281 262.506226,385.454407 
	C268.745575,384.351227 274.546600,383.325500 280.555847,382.263000 
	C281.017731,384.551422 281.403351,386.461792 281.860657,388.727478 
	C278.596405,389.434845 275.420044,390.123199 272.292358,390.800995 
	C272.732330,395.545227 272.732330,395.545227 281.898102,393.974396 
	C282.300018,396.081665 282.705994,398.210266 283.148621,400.531097 
	C279.973236,401.172882 277.246796,401.723938 274.091125,402.361725 
	C274.376068,404.126373 274.651001,405.829285 274.988464,407.919373 
	C278.210510,407.441132 281.258545,406.988708 284.792267,406.464233 
	C285.241150,408.459290 285.696808,410.484497 286.253540,412.958984 
	C283.082947,413.613953 280.225494,414.257202 277.346710,414.784088 
	C274.427795,415.318359 271.487823,415.737579 267.933044,416.307190 
	C266.653015,409.511078 265.409790,402.910217 264.107178,395.877045 
z"/>
<path fill="#F7F7F8" opacity="1.000000" stroke="none" 
	d="
M314.558807,381.864075 
	C308.420685,375.574371 308.703156,370.260376 315.491974,365.531067 
	C318.416107,363.494049 321.903351,362.265411 325.607635,360.436005 
	C326.273376,363.192047 326.768829,365.243164 327.238647,367.188110 
	C323.952240,368.888031 320.882599,370.475861 317.812958,372.063660 
	C317.914246,372.672424 318.015533,373.281189 318.116821,373.889954 
	C319.670593,374.141510 321.228210,374.616821 322.777252,374.590485 
	C324.920807,374.554047 327.266785,373.463196 329.149536,374.044159 
	C332.074219,374.946594 335.282074,376.328644 337.273499,378.508850 
	C339.829285,381.306946 339.583099,385.523041 336.949005,388.113098 
	C333.749115,391.259491 329.852142,394.051697 325.739258,395.725159 
	C324.272125,396.322083 321.292938,393.202911 318.353363,391.375580 
	C322.758514,389.530273 325.720184,388.536987 328.402130,387.041931 
	C329.444641,386.460785 329.855896,384.747223 330.554688,383.549500 
	C329.235474,383.120209 327.933502,382.395996 326.593689,382.317474 
	C322.708069,382.089722 318.807281,382.121094 314.558807,381.864075 
z"/>
<path fill="#F8F9F9" opacity="1.000000" stroke="none" 
	d="
M287.972717,390.670715 
	C285.646362,383.643677 287.337830,379.679352 294.106689,376.933838 
	C297.264862,375.652893 300.762329,375.208496 304.627075,374.256561 
	C304.627075,377.206787 304.627075,379.400818 304.627075,381.588715 
	C302.296844,381.980438 299.977448,382.154724 297.812317,382.826324 
	C296.749634,383.155975 295.973053,384.407959 295.066986,385.242493 
	C296.054169,385.909332 296.962830,386.925262 298.045197,387.168610 
	C300.141968,387.639984 302.332611,387.734528 304.491425,387.880798 
	C308.617371,388.160370 311.391693,390.280243 312.629883,394.138214 
	C313.860504,397.972504 312.798126,401.342804 309.869995,404.126190 
	C306.424377,407.401337 300.743469,409.203247 294.846924,408.740417 
	C294.081299,406.743103 293.270660,404.628387 292.483887,402.575928 
	C295.859100,402.002411 298.876312,401.771301 301.686340,400.884064 
	C302.942139,400.487549 303.781921,398.773346 304.810516,397.657166 
	C303.562439,397.056885 302.364685,396.107452 301.057312,395.919098 
	C296.362823,395.242706 291.192291,396.002533 287.972717,390.670715 
z"/>
<path fill="#F7F7F7" opacity="1.000000" stroke="none" 
	d="
M174.301682,373.841949 
	C175.567276,374.926056 176.528580,375.786011 177.668976,376.806152 
	C176.325180,378.541931 175.120590,380.097870 173.744446,381.875427 
	C171.233139,380.035004 168.887085,378.315704 166.231689,376.369690 
	C163.922852,379.264496 161.664825,382.095612 158.972275,385.471497 
	C156.897385,383.846069 154.882919,382.267975 152.430389,380.346710 
	C158.847107,372.133270 165.144028,364.073212 171.743515,355.625824 
	C176.553787,359.376068 181.223434,363.016663 186.351151,367.014374 
	C184.998215,368.775726 183.742813,370.410095 182.243332,372.362244 
	C179.575363,370.343414 177.094559,368.466217 174.264740,366.324921 
	C173.099976,367.692444 171.963196,369.027130 170.583862,370.646576 
	C171.809219,371.713165 172.903305,372.665466 174.301682,373.841949 
z"/>
<path fill="#F3F3F3" opacity="1.000000" stroke="none" 
	d="
M377.731445,229.022034 
	C379.087036,228.738632 380.049255,228.518387 380.992096,228.302582 
	C384.201965,234.960526 384.187927,234.986618 378.127411,238.559647 
	C376.043518,239.788239 373.987762,241.064453 370.581451,243.130081 
	C376.401031,243.504471 380.744690,243.783920 385.621643,244.097656 
	C386.147034,246.263718 386.706757,248.571136 387.346558,251.208786 
	C380.515625,252.945282 374.127380,254.569214 367.393829,256.280945 
	C366.850525,254.625763 366.364197,253.144135 365.782684,251.372574 
	C369.406158,250.378372 372.659210,249.485809 375.912292,248.593246 
	C375.872223,248.290131 375.832184,247.987000 375.792145,247.683884 
	C373.496246,247.566360 371.120911,247.770370 368.929718,247.229004 
	C367.195435,246.800522 365.687134,245.457275 364.078491,244.520264 
	C365.151917,242.967911 365.998413,241.165833 367.358978,239.929504 
	C368.890869,238.537491 370.886169,237.655426 372.402222,235.816330 
	C369.228119,236.498581 366.054016,237.180832 362.576294,237.928345 
	C362.189941,236.406143 361.840576,235.029709 361.391144,233.259140 
	C366.821411,231.837830 372.079742,230.461517 377.731445,229.022034 
z"/>
<path fill="#F4F4F5" opacity="1.000000" stroke="none" 
	d="
M357.740295,208.732498 
	C355.501190,209.764099 353.262054,210.795700 350.698944,211.976593 
	C349.993103,210.686737 349.319427,209.455658 348.384949,207.748001 
	C354.536835,204.433716 360.459961,201.242691 366.698700,197.881607 
	C367.938599,200.117111 369.115051,202.238220 370.317261,204.405807 
	C367.127808,207.583420 364.193573,210.506760 361.259338,213.430099 
	C361.306213,213.837250 361.353058,214.244415 361.399933,214.651581 
	C365.649384,213.938583 369.898804,213.225586 374.523041,212.449722 
	C375.586609,214.385086 376.690460,216.393768 378.052032,218.871414 
	C372.055389,222.084122 366.110107,225.269318 359.782013,228.659607 
	C358.884430,227.157791 358.114807,225.870087 357.220093,224.373077 
	C359.953461,222.715912 362.411743,221.225510 364.869995,219.735123 
	C364.750549,219.423523 364.631073,219.111923 364.511597,218.800308 
	C362.648315,219.131821 360.771484,219.780350 358.925781,219.701355 
	C357.242310,219.629303 354.896606,219.235703 354.142334,218.111740 
	C353.508636,217.167450 354.472229,214.823349 355.238251,213.367020 
	C355.901337,212.106384 357.280334,211.222321 358.834961,209.682617 
	C359.463715,208.712097 359.600433,208.230743 359.737152,207.749390 
	C359.071533,208.077087 358.405914,208.404785 357.740295,208.732498 
z"/>
<path fill="#F6F6F6" opacity="1.000000" stroke="none" 
	d="
M218.574677,381.485840 
	C220.628983,382.249451 222.326233,382.838654 224.361130,383.545044 
	C223.590820,385.788147 222.912216,387.764191 222.173004,389.916687 
	C219.654449,389.173615 217.494644,388.536407 214.953278,387.786621 
	C212.360474,395.338623 209.842834,402.671722 207.074203,410.735870 
	C204.397507,409.827026 201.878784,408.971832 199.096207,408.027039 
	C201.710342,400.172882 204.192322,392.715759 206.729095,385.094025 
	C204.249664,384.087738 202.143402,383.232941 199.693314,382.238586 
	C200.425873,380.093750 201.098175,378.125336 201.860092,375.894470 
	C207.573746,377.786621 212.895691,379.549042 218.574677,381.485840 
z"/>
<path fill="#37B1F8" opacity="1.000000" stroke="none" 
	d="
M373.300171,339.423431 
	C371.640442,343.926147 368.164642,346.538666 364.313965,346.428314 
	C361.263519,346.340881 357.514526,344.239868 355.465302,341.844299 
	C352.460480,338.331604 353.065338,333.143341 355.524963,329.811859 
	C358.227051,326.151947 363.378204,324.499054 367.712128,326.550262 
	C370.805695,328.014374 374.088562,330.868195 373.410126,335.528595 
	C373.238617,336.706635 373.520721,337.950684 373.300171,339.423431 
z"/>
<path fill="#F2F2F3" opacity="1.000000" stroke="none" 
	d="
M234.209610,150.821960 
	C233.921631,145.887558 233.668411,141.416168 233.375015,136.235306 
	C238.338638,136.346939 243.619247,133.838364 247.882538,137.668304 
	C249.242096,138.889679 248.409485,142.551239 248.576828,145.050186 
	C249.068604,147.342697 250.397247,149.923233 249.822296,151.968658 
	C249.338791,153.688721 246.830048,155.441696 244.877670,156.008682 
	C241.772125,156.910553 238.383514,156.837753 234.906158,157.198837 
	C234.648605,154.897186 234.446503,153.091080 234.209610,150.821960 
z"/>
<path fill="#F1F1F1" opacity="1.000000" stroke="none" 
	d="
M269.388855,157.516937 
	C266.849884,154.816879 264.684723,152.188446 262.261078,149.246292 
	C261.829407,151.544449 261.396179,153.850647 260.906403,156.457916 
	C259.131531,156.274307 257.536224,156.109283 255.539139,155.902695 
	C256.264740,148.973923 256.968170,142.256897 257.729156,134.990280 
	C262.919037,136.442139 269.141357,134.298141 271.696045,140.076965 
	C272.680542,142.303955 270.574127,145.897354 269.876007,148.868195 
	C269.458832,148.794495 269.041687,148.720810 268.624512,148.647125 
	C270.075043,151.582428 271.525543,154.517731 273.162537,157.830368 
	C271.709625,157.727051 270.736115,157.657822 269.388855,157.516937 
z"/>
<path fill="#F4F4F5" opacity="1.000000" stroke="none" 
	d="
M375.378448,279.873566 
	C379.941711,280.357422 384.064026,280.803528 388.838196,281.320160 
	C387.686768,286.321014 389.588043,292.366882 384.122772,295.109467 
	C381.922089,296.213867 378.127380,294.141785 375.058136,293.515350 
	C375.133118,293.045227 375.208130,292.575073 375.283142,292.104919 
	C372.474457,293.507507 369.665771,294.910095 366.695587,296.393341 
	C364.329529,288.739624 371.771088,289.347015 375.556702,285.656403 
	C372.624817,285.277374 370.447968,284.995941 367.625732,284.631073 
	C367.733612,282.939178 367.843689,281.212860 367.983398,279.022003 
	C370.431213,279.308472 372.684387,279.572144 375.378448,279.873566 
z"/>
<path fill="#F2F2F3" opacity="1.000000" stroke="none" 
	d="
M332.966461,188.164261 
	C337.482758,186.612900 342.062805,185.223236 346.500671,183.472977 
	C353.491943,180.715652 353.451447,180.612991 357.942719,186.743103 
	C354.282562,192.763733 350.589996,198.837708 346.658691,205.304321 
	C344.774963,202.894302 341.339996,201.669556 344.063293,197.783218 
	C344.260864,197.501236 340.510468,193.035568 339.057922,193.278549 
	C334.583588,194.026993 334.275574,191.419617 333.354248,188.300354 
	C333.017853,188.083511 332.966461,188.164261 332.966461,188.164261 
z"/>
<path fill="#F3F4F4" opacity="1.000000" stroke="none" 
	d="
M333.055176,188.053558 
	C324.974945,186.712402 328.877533,180.378723 328.192291,174.746994 
	C326.224365,177.463516 324.825073,179.395096 323.363647,181.412415 
	C321.309418,179.659058 320.087128,178.615768 318.582886,177.331833 
	C322.951660,171.935699 327.197998,166.690781 331.719269,161.106308 
	C335.422546,164.893188 341.668243,166.597305 340.723297,172.849579 
	C340.361450,175.243927 336.713654,177.141663 334.563232,179.265686 
	C334.154175,178.959396 333.745117,178.653107 333.336060,178.346832 
	C333.128632,181.317627 332.921204,184.288437 332.840118,187.711761 
	C332.966461,188.164261 333.017853,188.083511 333.055176,188.053558 
z"/>
<path fill="#F6F6F6" opacity="1.000000" stroke="none" 
	d="
M297.012848,145.093994 
	C300.532471,154.952637 295.143188,163.340393 286.514954,162.045151 
	C279.755127,161.030380 276.557007,156.342667 277.975769,149.528748 
	C279.452606,142.435760 284.495605,139.056732 291.024994,141.161469 
	C293.128571,141.839539 294.903656,143.536713 297.012848,145.093994 
M284.063416,149.715851 
	C282.972290,155.174774 284.930664,158.667755 288.181580,156.947189 
	C290.265106,155.844467 291.510223,152.518600 292.308441,149.935120 
	C292.635925,148.875168 290.384613,145.824921 290.012817,145.941086 
	C287.987610,146.573776 286.182617,147.911423 284.063416,149.715851 
z"/>
<path fill="#F7F7F7" opacity="1.000000" stroke="none" 
	d="
M196.511383,372.430969 
	C197.009705,373.421051 197.606949,374.418762 197.325012,374.948608 
	C192.749466,383.546967 188.062424,392.086029 183.238724,400.935455 
	C180.626129,399.527740 178.350418,398.301544 175.717590,396.882935 
	C180.760468,387.642761 185.640594,378.700775 190.687332,369.453491 
	C192.713806,370.470581 194.457520,371.345734 196.511383,372.430969 
z"/>
<path fill="#F3F3F3" opacity="1.000000" stroke="none" 
	d="
M321.139099,154.771393 
	C321.289703,156.574142 321.166412,158.130371 320.979340,160.492065 
	C313.092072,154.647690 308.658813,155.393295 307.389313,161.778107 
	C307.096375,163.251526 308.049377,165.181656 308.937714,166.577988 
	C309.292389,167.135483 311.024170,166.816864 312.129059,166.897064 
	C311.904541,166.009094 311.606415,165.132034 311.472809,164.230591 
	C311.274048,162.889801 311.191498,161.531799 310.942108,158.979736 
	C314.755798,161.038330 317.163208,162.337814 319.867126,163.797363 
	C318.066010,167.191711 316.454071,170.229584 314.648651,173.632050 
	C309.468353,172.679245 304.597870,171.216461 302.074554,166.116638 
	C300.066406,162.057968 301.823059,158.277924 304.223267,154.953613 
	C308.071472,149.623810 313.524963,149.555115 321.139099,154.771393 
z"/>
<path fill="#F1F1F2" opacity="1.000000" stroke="none" 
	d="
M367.708496,267.638794 
	C367.591309,265.572540 367.501251,263.936462 367.381836,261.767426 
	C374.409912,261.416260 381.151886,261.079376 388.172791,260.728577 
	C388.472595,264.993134 388.737946,268.767975 389.029938,272.921295 
	C387.388977,273.011932 386.138306,273.081055 384.528564,273.169983 
	C384.271332,271.072845 384.036804,269.160736 383.802277,267.248657 
	C383.312561,267.083618 382.822876,266.918579 382.333191,266.753540 
	C381.668945,268.546722 381.004730,270.339905 380.080719,272.834351 
	C379.567169,272.868683 378.216217,272.959015 376.680847,273.061707 
	C376.387543,270.935150 376.144592,269.173615 375.861694,267.122375 
	C374.669220,267.213104 373.588409,267.295319 372.440491,267.382660 
	C372.440491,269.429749 372.440491,271.246582 372.440491,273.560791 
	C371.217438,273.761627 369.873413,273.982330 368.060852,274.279968 
	C367.940033,271.972900 367.837830,270.020935 367.708496,267.638794 
z"/>
<path fill="#EBCCB1" opacity="1.000000" stroke="none" 
	d="
M263.856934,118.408478 
	C265.602112,116.423820 267.227600,114.786400 269.533234,113.115463 
	C270.499023,112.702896 270.784637,112.323845 271.070251,111.944794 
	C271.070251,111.944794 271.070953,112.036926 271.037537,112.067902 
	C276.797119,111.723282 278.555634,113.092331 278.865448,118.219078 
	C279.127472,122.555275 276.687286,125.002808 271.779236,125.326576 
	C264.897858,125.780518 262.756683,124.031021 263.856934,118.408478 
z"/>
<path fill="#25262B" opacity="1.000000" stroke="none" 
	d="
M174.682709,146.691589 
	C164.028488,162.397720 153.592773,177.818848 143.157043,193.239990 
	C152.512802,170.450287 162.405472,148.034637 182.695572,132.661545 
	C183.104156,132.931656 183.512756,133.201767 183.921341,133.471878 
	C180.914642,137.783463 177.907928,142.095047 174.682709,146.691589 
z"/>
<path fill="#212328" opacity="1.000000" stroke="none" 
	d="
M156.376373,189.488297 
	C162.789307,181.139908 169.202240,172.791519 175.615173,164.443146 
	C176.101349,164.762466 176.587540,165.081787 177.073730,165.401123 
	C176.240936,168.150345 175.408142,170.899582 174.575348,173.648819 
	C174.794983,173.867203 175.014618,174.085571 175.234238,174.303940 
	C178.228928,170.905258 181.223602,167.506561 184.218292,164.107880 
	C184.625580,164.386414 185.032883,164.664948 185.440186,164.943497 
	C182.239944,171.009933 179.104645,177.112610 175.763336,183.100342 
	C175.307800,183.916656 173.860062,184.256912 172.809036,184.650055 
	C167.862808,186.500198 162.894730,188.291901 157.372772,189.973389 
	C156.666183,189.724304 156.521286,189.606293 156.376373,189.488297 
z"/>
<path fill="#26262B" opacity="1.000000" stroke="none" 
	d="
M217.179657,108.463394 
	C217.949478,110.911591 218.212067,113.737480 219.659393,115.681168 
	C220.702530,117.082054 223.134766,120.527115 225.396729,115.822632 
	C225.877182,114.823349 228.732483,114.965919 230.671417,114.248550 
	C230.849182,113.914688 230.792801,113.903435 230.792801,113.903435 
	C228.522079,116.702629 226.251358,119.501816 224.101608,122.151901 
	C221.797745,120.983086 219.280609,119.706070 216.621811,118.357178 
	C212.125046,121.194473 212.125046,121.194473 206.275772,118.438118 
	C209.447525,114.857224 212.657333,111.233383 216.265396,107.538979 
	C216.835648,107.800079 217.007660,108.131737 217.179657,108.463394 
z"/>
<path fill="#3A3839" opacity="1.000000" stroke="none" 
	d="
M106.932419,266.856781 
	C106.814140,269.739624 106.695961,272.148071 106.577782,274.556519 
	C102.222641,261.259125 102.226868,247.889862 104.979515,234.461746 
	C105.630516,234.452957 106.281525,234.444168 106.932526,234.435379 
	C106.932526,245.084381 106.932526,255.733383 106.932419,266.856781 
z"/>
<path fill="#444040" opacity="1.000000" stroke="none" 
	d="
M252.284378,107.892288 
	C251.057816,111.088150 249.831787,113.900902 248.133255,117.797653 
	C247.295029,114.044304 247.482574,111.378731 246.272751,110.338753 
	C244.699326,108.986237 242.015732,108.925217 238.808777,108.028381 
	C242.964615,106.977043 246.395447,106.109100 249.826279,105.241165 
	C250.055420,105.690186 250.284576,106.139206 250.513718,106.588226 
	C250.513718,105.125923 250.513718,103.663628 250.513718,102.201324 
	C250.904160,102.160660 251.294586,102.119987 251.685028,102.079315 
	C251.884995,103.889275 252.084961,105.699226 252.284378,107.892288 
z"/>
<path fill="#2B2B2F" opacity="1.000000" stroke="none" 
	d="
M217.415451,108.172256 
	C217.007660,108.131737 216.835648,107.800079 216.471268,107.264343 
	C216.357651,100.322235 209.292908,102.081726 206.414932,98.189575 
	C208.272049,98.087296 210.171448,97.982681 212.283966,97.866341 
	C211.879837,96.167961 211.505142,94.593323 211.115173,92.954475 
	C216.477661,96.657158 222.457764,99.987755 217.415451,108.172256 
z"/>
<path fill="#3F3B3C" opacity="1.000000" stroke="none" 
	d="
M265.045959,101.036911 
	C265.775726,102.012177 266.967651,103.374023 266.970490,104.738365 
	C266.975281,107.019218 266.220551,109.301666 265.785522,111.583443 
	C265.367279,111.506554 264.949005,111.429665 264.530762,111.352783 
	C264.745575,110.072952 264.960388,108.793129 265.279083,106.894371 
	C262.240356,106.894371 259.322601,106.894371 256.386932,106.894371 
	C257.365509,105.721146 258.259888,104.648842 259.154297,103.576546 
	C258.859833,103.291862 258.565369,103.007187 258.270905,102.722511 
	C260.505127,102.289879 262.739380,101.857246 265.045959,101.036911 
z"/>
<path fill="#343335" opacity="1.000000" stroke="none" 
	d="
M235.054810,96.982033 
	C236.506989,100.992920 238.064438,105.004829 235.075500,109.183983 
	C235.084045,102.853424 230.372070,104.260132 226.513412,103.758881 
	C227.822037,102.695107 228.902527,101.816795 228.949234,101.778816 
	C230.313034,98.159340 234.528763,102.391861 234.356033,97.318207 
	C234.615646,96.984535 235.054810,96.982033 235.054810,96.982033 
z"/>
<path fill="#2B2B2F" opacity="1.000000" stroke="none" 
	d="
M126.146866,271.297119 
	C126.800529,269.538086 127.513153,266.595184 128.993530,266.137909 
	C132.030807,265.199738 135.479538,265.593719 138.758896,265.439331 
	C138.849335,266.059998 138.939774,266.680695 139.030212,267.301392 
	C134.871262,268.613739 130.712311,269.926056 126.146866,271.297119 
z"/>
<path fill="#2F2E31" opacity="1.000000" stroke="none" 
	d="
M171.067154,135.062103 
	C166.691635,140.688278 162.316132,146.314453 157.940613,151.940643 
	C159.592117,144.533081 162.979126,138.373749 170.436203,134.841217 
	C170.876022,134.882462 171.067154,135.062103 171.067154,135.062103 
z"/>
<path fill="#373537" opacity="1.000000" stroke="none" 
	d="
M232.954956,123.263306 
	C231.913467,123.097778 231.288116,122.995316 230.662766,122.892860 
	C236.986115,121.920906 243.268341,118.750488 250.265335,123.326385 
	C244.170258,123.326385 238.770676,123.326385 232.954956,123.263306 
z"/>
<path fill="#2E2D31" opacity="1.000000" stroke="none" 
	d="
M170.811096,283.785797 
	C176.268021,283.067810 181.294174,282.375305 186.320343,281.682770 
	C179.684631,284.934540 172.815414,286.275024 165.714386,285.758850 
	C165.634842,285.282654 165.555283,284.806488 165.475739,284.330292 
	C166.287704,284.206482 167.096588,284.053406 167.912521,283.967102 
	C168.731461,283.880493 169.557434,283.860443 170.811096,283.785797 
z"/>
<path fill="#2E2E31" opacity="1.000000" stroke="none" 
	d="
M235.082199,96.546501 
	C235.054810,96.982033 234.615646,96.984535 234.396118,96.989334 
	C233.401505,91.699341 232.626434,86.404556 231.851364,81.109764 
	C232.349670,81.031822 232.847961,80.953880 233.346268,80.875931 
	C237.617050,85.303284 234.397614,91.054573 235.082199,96.546501 
z"/>
<path fill="#323134" opacity="1.000000" stroke="none" 
	d="
M247.153259,76.989304 
	C248.329483,81.909935 249.139755,86.671738 249.950027,91.433533 
	C249.292557,91.526108 248.635086,91.618675 247.977615,91.711250 
	C247.580841,86.750992 247.184067,81.790733 247.153259,76.989304 
z"/>
<path fill="#423E3E" opacity="1.000000" stroke="none" 
	d="
M261.250854,78.868790 
	C261.463226,81.101181 261.634857,82.936111 261.806458,84.771049 
	C261.387299,84.850891 260.968140,84.930740 260.548981,85.010582 
	C259.407166,81.617386 258.265320,78.224182 257.123505,74.830986 
	C257.639618,74.570641 258.155731,74.310295 258.671844,74.049950 
	C259.517914,75.523743 260.363983,76.997543 261.250854,78.868790 
z"/>
<path fill="#26262B" opacity="1.000000" stroke="none" 
	d="
M230.867004,113.937241 
	C231.147018,113.608047 231.409195,113.256310 231.671371,112.904579 
	C231.743317,113.006645 231.815262,113.108704 231.887207,113.210770 
	C231.626465,113.348602 231.365723,113.486435 230.948883,113.763855 
	C230.792801,113.903435 230.849182,113.914688 230.867004,113.937241 
z"/>
<path fill="#1B1E25" opacity="1.000000" stroke="none" 
	d="
M194.060516,123.937782 
	C193.693024,123.773506 193.478424,123.459557 193.263809,123.145615 
	C193.528427,123.121368 193.793030,123.097130 194.282043,123.274567 
	C194.506424,123.476242 194.213425,123.788109 194.060516,123.937782 
z"/>
<path fill="#1B1E25" opacity="1.000000" stroke="none" 
	d="
M270.694000,111.870705 
	C270.784637,112.323845 270.499023,112.702896 269.826111,113.056885 
	C269.731812,112.620087 270.024780,112.208359 270.694000,111.870705 
z"/>
<path fill="#444040" opacity="1.000000" stroke="none" 
	d="
M241.587479,104.524002 
	C241.548691,104.534622 241.626266,104.513382 241.587479,104.524002 
z"/>
<path fill="#2F2E31" opacity="1.000000" stroke="none" 
	d="
M170.779968,134.793167 
	C171.018250,134.556763 171.352600,134.409653 171.686951,134.262543 
	C171.659653,134.488800 171.632370,134.715073 171.336121,135.001709 
	C171.067154,135.062103 170.876022,134.882462 170.779968,134.793167 
z"/>
<path fill="#1B1E25" opacity="1.000000" stroke="none" 
	d="
M165.253296,247.269562 
	C165.634125,247.224197 165.764893,247.420151 165.895660,247.616104 
	C165.598190,247.581039 165.300705,247.545959 165.253296,247.269562 
z"/>
<path fill="#1B1E25" opacity="1.000000" stroke="none" 
	d="
M168.243500,245.687332 
	C167.976547,246.152954 167.576263,246.297791 167.175980,246.442627 
	C167.176361,246.005066 167.176727,245.567474 167.469528,244.947601 
	C167.878036,244.965729 167.994110,245.166138 168.243500,245.687332 
z"/>
<path fill="#212328" opacity="1.000000" stroke="none" 
	d="
M185.728348,163.362976 
	C185.717377,163.660721 185.483231,163.726791 185.249084,163.792877 
	C185.334457,163.572342 185.419830,163.351822 185.728348,163.362976 
z"/>
<path fill="#212328" opacity="1.000000" stroke="none" 
	d="
M157.016312,190.033234 
	C156.873535,190.398544 156.525528,190.572937 156.177536,190.747314 
	C156.130524,190.485718 156.083511,190.224106 156.206436,189.725403 
	C156.521286,189.606293 156.666183,189.724304 157.016312,190.033234 
z"/>
<path fill="#4F4947" opacity="1.000000" stroke="none" 
	d="
M255.115295,263.798950 
	C254.466751,263.355621 253.362396,263.012726 253.239182,262.453613 
	C251.774445,255.807739 251.651413,249.249130 254.910522,242.408691 
	C254.910522,249.701538 254.910522,256.335541 255.004425,263.406799 
	C255.098328,263.844025 255.115295,263.798950 255.115295,263.798950 
z"/>
<path fill="#363436" opacity="1.000000" stroke="none" 
	d="
M262.289856,241.692932 
	C261.317017,245.328476 260.467072,248.613068 259.539337,252.198257 
	C257.543701,249.057983 259.127991,242.469421 263.380951,236.795898 
	C262.909088,239.011658 262.660950,240.176804 262.289856,241.692932 
z"/>
<path fill="#4F4947" opacity="1.000000" stroke="none" 
	d="
M255.085571,263.862091 
	C255.228912,264.482117 255.385025,265.084076 255.390884,265.106659 
	C255.399673,265.218414 255.361145,264.728790 255.218964,264.019073 
	C255.115295,263.798950 255.098328,263.844025 255.085571,263.862091 
z"/>
<path fill="#1B2935" opacity="1.000000" stroke="none" 
	d="
M269.840881,188.449799 
	C268.855103,191.785233 267.849426,195.148071 264.010254,194.322510 
	C262.256042,193.945312 259.550873,191.315613 259.712585,190.008881 
	C260.126587,186.663208 261.011047,182.312408 263.355316,180.525253 
	C266.637207,178.023315 271.459167,181.945831 269.840881,188.449799 
z"/>
<path fill="#1B2936" opacity="1.000000" stroke="none" 
	d="
M276.431335,186.837555 
	C273.696503,184.532745 275.306549,183.154144 277.358826,183.484787 
	C279.545380,183.837051 281.985138,185.174438 283.344055,186.862732 
	C283.896576,187.549133 282.109497,190.452271 280.966614,192.045197 
	C280.275879,193.007904 278.778229,193.391678 278.020782,193.821365 
	C278.986633,195.344086 279.853821,196.711273 280.721039,198.078461 
	C279.209320,197.979202 277.637878,198.105255 276.200806,197.724396 
	C274.348785,197.233582 272.604340,196.336838 269.200012,194.964447 
	C272.852966,192.869186 275.338593,191.543427 277.702393,190.027679 
	C278.426392,189.563431 278.816315,188.578201 279.359222,187.831543 
	C278.519226,187.518692 277.679260,187.205811 276.431335,186.837555 
z"/>
<path fill="#1B2B38" opacity="1.000000" stroke="none" 
	d="
M292.042694,193.207947 
	C290.467102,192.106018 289.149689,191.321518 286.809998,189.928253 
	C291.953430,188.337448 295.356262,189.199020 296.293030,192.871887 
	C297.587036,197.945267 292.682678,198.194260 289.694580,199.414597 
	C290.658112,200.967468 291.567169,202.432541 292.476196,203.897614 
	C292.046295,204.269897 291.616364,204.642181 291.186432,205.014481 
	C288.272430,203.355835 285.358459,201.697205 281.764984,199.651825 
	C285.839447,197.282578 289.070190,195.403976 292.042694,193.207947 
z"/>
<path fill="#1A2632" opacity="1.000000" stroke="none" 
	d="
M218.749573,191.281281 
	C220.559525,192.843155 223.298355,194.557724 223.109833,195.842880 
	C222.847168,197.633682 220.604950,199.440033 218.792786,200.571838 
	C217.850922,201.160080 216.013168,200.313919 214.580124,200.115723 
	C214.597702,199.636902 214.615280,199.158081 214.632858,198.679260 
	C216.190216,198.037140 217.747559,197.395035 219.304916,196.752914 
	C219.315155,196.363953 219.325394,195.975006 219.335632,195.586044 
	C218.060852,195.393860 216.788101,195.186874 215.510895,195.012451 
	C212.525238,194.604691 210.336044,192.522797 211.637161,190.035339 
	C212.686661,188.028915 215.918686,187.149063 218.237488,185.869141 
	C218.346008,185.809250 219.263931,186.696732 219.311279,187.190353 
	C219.359192,187.689774 218.922256,188.477921 218.468979,188.732651 
	C217.531052,189.259766 216.441330,189.516785 213.938370,190.413635 
	C216.380844,190.870148 217.376678,191.056274 218.749573,191.281281 
z"/>
<path fill="#1A2531" opacity="1.000000" stroke="none" 
	d="
M212.553818,203.626083 
	C210.411392,205.148529 208.501480,206.392868 206.464447,207.720047 
	C205.645126,206.683105 204.989822,205.951889 204.444733,205.146133 
	C202.506165,202.280640 200.605148,199.389755 198.198334,195.768921 
	C201.080032,194.367188 203.553467,193.164032 206.026917,191.960876 
	C206.277802,192.456528 206.528687,192.952179 206.779556,193.447830 
	C205.799561,194.616898 204.819565,195.785965 202.959320,198.005112 
	C205.606537,197.248825 206.994522,196.852295 209.619064,196.102493 
	C208.474365,198.711945 207.729401,200.410141 207.056976,201.943008 
	C208.913010,203.942413 211.967590,197.997910 212.553818,203.626083 
z"/>
<path fill="#19232D" opacity="1.000000" stroke="none" 
	d="
M246.670624,192.948181 
	C247.064133,191.144165 247.708771,189.417862 248.674423,187.895111 
	C249.742020,186.211639 251.103607,184.714569 252.657990,182.725815 
	C249.871719,182.505493 248.056931,182.362000 245.240662,182.139328 
	C248.732971,178.370743 252.071365,177.578491 254.664581,180.263397 
	C258.414368,184.145782 253.783386,186.564545 252.104126,189.195862 
	C253.461044,190.045364 254.757294,190.856857 256.053528,191.668365 
	C254.546143,192.182663 253.071808,192.895950 251.521759,193.153214 
	C250.077469,193.392929 248.552658,193.147522 246.670624,192.948181 
z"/>
<path fill="#1A2733" opacity="1.000000" stroke="none" 
	d="
M229.639282,194.419800 
	C227.800613,190.500992 226.105408,186.967361 224.257004,183.114426 
	C225.956635,182.624786 228.586609,181.687836 231.297440,181.201813 
	C232.052948,181.066360 233.047501,182.264252 233.932388,182.850479 
	C229.213745,186.043442 233.279388,189.805801 233.233261,193.307129 
	C233.195190,196.195038 232.091278,196.974747 229.639282,194.419800 
z"/>
<path fill="#1B1E25" opacity="1.000000" stroke="none" 
	d="
M357.990723,208.961182 
	C358.405914,208.404785 359.071533,208.077087 359.737152,207.749390 
	C359.600433,208.230743 359.463715,208.712097 359.041138,209.412811 
	C358.583893,209.484726 358.412506,209.337296 357.990723,208.961182 
z"/>
<path fill="#23262C" opacity="1.000000" stroke="none" 
	d="
M284.182648,149.361191 
	C286.182617,147.911423 287.987610,146.573776 290.012817,145.941086 
	C290.384613,145.824921 292.635925,148.875168 292.308441,149.935120 
	C291.510223,152.518600 290.265106,155.844467 288.181580,156.947189 
	C284.930664,158.667755 282.972290,155.174774 284.182648,149.361191 
z"/>
</svg>